ISO-10303-21;
HEADER;
FILE_DESCRIPTION (( 'STEP AP214' ),
    '1' );
FILE_NAME ('…œœ‰ÃÂµ≤∞Â.step',
    '2026-08-27T09:35:13',
    ( '' ),
    ( '' ),
    'SwSTEP 2.0',
    'SolidWorks 2024',
    '' );
FILE_SCHEMA (( 'AUTOMOTIVE_DESIGN' ));
ENDSEC;

DATA;
#1 = CARTESIAN_POINT ( 'NONE',  ( 44.99999999999997158, -74.50000000000000000, 0.0000000000000000000 ) ) ;
#2 = CARTESIAN_POINT ( 'NONE',  ( 45.00000000000000000, -73.50000000000000000, 3.000000000000000000 ) ) ;
#3 = ORIENTED_EDGE ( 'NONE', *, *, #39, .F. ) ;
#4 = FACE_OUTER_BOUND ( 'NONE', #112, .T. ) ;
#5 = FACE_OUTER_BOUND ( 'NONE', #650, .T. ) ;
#6 = VECTOR ( 'NONE', #186, 1000.000000000000000 ) ;
#7 = ORIENTED_EDGE ( 'NONE', *, *, #72, .T. ) ;
#8 = DIRECTION ( 'NONE',  ( 0.0000000000000000000, 0.0000000000000000000, -1.000000000000000000 ) ) ;
#9 = LINE ( 'NONE', #250, #284 ) ;
#10 = ORIENTED_EDGE ( 'NONE', *, *, #277, .F. ) ;
#11 = LINE ( 'NONE', #392, #353 ) ;
#12 = CARTESIAN_POINT ( 'NONE',  ( -45.00000000000000000, -62.00000000000000000, 3.000000000000000000 ) ) ;
#13 = VECTOR ( 'NONE', #446, 1000.000000000000000 ) ;
#14 = DIRECTION ( 'NONE',  ( 0.0000000000000000000, 0.0000000000000000000, -1.000000000000000000 ) ) ;
#15 = CARTESIAN_POINT ( 'NONE',  ( -20.99999999999999645, -62.00000000000000000, -27.95084971874737079 ) ) ;
#16 = AXIS2_PLACEMENT_3D ( 'NONE', #174, #14, #405 ) ;
#17 = EDGE_CURVE ( 'NONE', #80, #482, #367, .T. ) ;
#18 = LINE ( 'NONE', #77, #439 ) ;
#19 = CARTESIAN_POINT ( 'NONE',  ( -21.00000000000000355, -74.50000000000000000, 3.000000000000000000 ) ) ;
#20 = EDGE_LOOP ( 'NONE', ( #533, #608, #273, #619, #670, #577, #681, #248, #85, #372, #493, #71, #134, #592, #420, #48, #226, #285, #588, #723 ) ) ;
#21 = LINE ( 'NONE', #19, #210 ) ;
#22 = ADVANCED_FACE ( 'NONE', ( #188 ), #473, .T. ) ;
#23 = ORIENTED_EDGE ( 'NONE', *, *, #167, .F. ) ;
#24 = VECTOR ( 'NONE', #693, 1000.000000000000000 ) ;
#25 = CARTESIAN_POINT ( 'NONE',  ( 44.99999999999994316, 63.00000000000000000, -27.95084971874737079 ) ) ;
#26 = ADVANCED_FACE ( 'NONE', ( #241 ), #197, .F. ) ;
#27 = ORIENTED_EDGE ( 'NONE', *, *, #212, .T. ) ;
#28 = ORIENTED_EDGE ( 'NONE', *, *, #680, .T. ) ;
#29 = FACE_OUTER_BOUND ( 'NONE', #711, .T. ) ;
#30 = EDGE_LOOP ( 'NONE', ( #331, #527, #616, #579 ) ) ;
#31 = ORIENTED_EDGE ( 'NONE', *, *, #464, .F. ) ;
#32 = ORIENTED_EDGE ( 'NONE', *, *, #578, .T. ) ;
#33 = CIRCLE ( 'NONE', #553, 1.000000000000000888 ) ;
#34 = ORIENTED_EDGE ( 'NONE', *, *, #562, .T. ) ;
#35 = CYLINDRICAL_SURFACE ( 'NONE', #623, 1.000000000000000888 ) ;
#36 = DIRECTION ( 'NONE',  ( 0.0000000000000000000, 0.0000000000000000000, -1.000000000000000000 ) ) ;
#37 = VERTEX_POINT ( 'NONE', #700 ) ;
#38 = EDGE_CURVE ( 'NONE', #355, #74, #699, .T. ) ;
#39 = EDGE_CURVE ( 'NONE', #531, #58, #247, .T. ) ;
#40 = PLANE ( 'NONE',  #574 ) ;
#41 = ORIENTED_EDGE ( 'NONE', *, *, #116, .F. ) ;
#42 = CARTESIAN_POINT ( 'NONE',  ( -45.00000000000000000, -73.50000000000000000, 0.0000000000000000000 ) ) ;
#43 = CIRCLE ( 'NONE', #517, 1.000000000000000888 ) ;
#44 = LINE ( 'NONE', #428, #388 ) ;
#45 = ORIENTED_EDGE ( 'NONE', *, *, #644, .T. ) ;
#46 = DIRECTION ( 'NONE',  ( 0.0000000000000000000, 0.0000000000000000000, -1.000000000000000000 ) ) ;
#47 = DIRECTION ( 'NONE',  ( -0.0000000000000000000, 0.0000000000000000000, 1.000000000000000000 ) ) ;
#48 = ORIENTED_EDGE ( 'NONE', *, *, #167, .T. ) ;
#49 = DIRECTION ( 'NONE',  ( -0.0000000000000000000, 0.0000000000000000000, -1.000000000000000000 ) ) ;
#50 = LINE ( 'NONE', #488, #66 ) ;
#51 = ORIENTED_EDGE ( 'NONE', *, *, #321, .T. ) ;
#52 = DIRECTION ( 'NONE',  ( 0.0000000000000000000, 0.0000000000000000000, 1.000000000000000000 ) ) ;
#53 = CARTESIAN_POINT ( 'NONE',  ( 45.99999999999994316, 63.00000000000000000, 3.000000000000000000 ) ) ;
#54 = ORIENTED_EDGE ( 'NONE', *, *, #438, .F. ) ;
#55 = DIRECTION ( 'NONE',  ( 0.0000000000000000000, 0.0000000000000000000, -1.000000000000000000 ) ) ;
#56 = CARTESIAN_POINT ( 'NONE',  ( 44.99999999999994316, 74.50000000000000000, 0.0000000000000000000 ) ) ;
#57 = CIRCLE ( 'NONE', #496, 1.000000000000000888 ) ;
#58 = VERTEX_POINT ( 'NONE', #433 ) ;
#59 = AXIS2_PLACEMENT_3D ( 'NONE', #591, #145, #721 ) ;
#60 = CARTESIAN_POINT ( 'NONE',  ( -45.00000000000000000, 73.50000000000000000, 0.0000000000000000000 ) ) ;
#61 = ADVANCED_FACE ( 'NONE', ( #91 ), #40, .F. ) ;
#62 = LINE ( 'NONE', #220, #492 ) ;
#63 = CARTESIAN_POINT ( 'NONE',  ( 45.00000000000000000, -62.00000000000000000, -27.95084971874737079 ) ) ;
#64 = LINE ( 'NONE', #450, #82 ) ;
#65 = EDGE_CURVE ( 'NONE', #143, #381, #377, .T. ) ;
#66 = VECTOR ( 'NONE', #661, 1000.000000000000000 ) ;
#67 = AXIS2_PLACEMENT_3D ( 'NONE', #487, #46, #712 ) ;
#68 = CYLINDRICAL_SURFACE ( 'NONE', #529, 1.000000000000000888 ) ;
#69 =( GEOMETRIC_REPRESENTATION_CONTEXT ( 3 ) GLOBAL_UNCERTAINTY_ASSIGNED_CONTEXT ( ( #426 ) ) GLOBAL_UNIT_ASSIGNED_CONTEXT ( ( #264, #537, #719 ) ) REPRESENTATION_CONTEXT ( 'NONE', 'WORKASPACE' ) );
#70 = CARTESIAN_POINT ( 'NONE',  ( -44.99999999999999289, -74.50000000000000000, 0.0000000000000000000 ) ) ;
#71 = ORIENTED_EDGE ( 'NONE', *, *, #298, .T. ) ;
#72 = EDGE_CURVE ( 'NONE', #531, #384, #668, .T. ) ;
#73 = CARTESIAN_POINT ( 'NONE',  ( 44.99999999999991473, 74.50000000000000000, 3.000000000000000000 ) ) ;
#74 = VERTEX_POINT ( 'NONE', #328 ) ;
#75 = CIRCLE ( 'NONE', #103, 1.000000000000000888 ) ;
#76 = CARTESIAN_POINT ( 'NONE',  ( 0.0000000000000000000, 0.0000000000000000000, 0.0000000000000000000 ) ) ;
#77 = CARTESIAN_POINT ( 'NONE',  ( -21.00000000000001066, 62.00000000000000000, 0.0000000000000000000 ) ) ;
#78 = CARTESIAN_POINT ( 'NONE',  ( -21.00000000000000355, -74.50000000000000000, 0.0000000000000000000 ) ) ;
#79 = VECTOR ( 'NONE', #550, 1000.000000000000000 ) ;
#80 = VERTEX_POINT ( 'NONE', #730 ) ;
#81 = PRODUCT_CONTEXT ( 'NONE', #409, 'mechanical' ) ;
#82 = VECTOR ( 'NONE', #114, 1000.000000000000000 ) ;
#83 = CARTESIAN_POINT ( 'NONE',  ( 45.00000000000000000, -62.00000000000000000, 3.000000000000000000 ) ) ;
#84 = ADVANCED_FACE ( 'NONE', ( #154 ), #319, .T. ) ;
#85 = ORIENTED_EDGE ( 'NONE', *, *, #117, .T. ) ;
#86 = ORIENTED_EDGE ( 'NONE', *, *, #72, .F. ) ;
#87 = FACE_OUTER_BOUND ( 'NONE', #139, .T. ) ;
#88 = EDGE_LOOP ( 'NONE', ( #259, #414, #508, #368 ) ) ;
#89 = ORIENTED_EDGE ( 'NONE', *, *, #438, .T. ) ;
#90 = CARTESIAN_POINT ( 'NONE',  ( 46.00000000000000000, -73.50000000000000000, 0.0000000000000000000 ) ) ;
#91 = FACE_OUTER_BOUND ( 'NONE', #30, .T. ) ;
#92 = EDGE_CURVE ( 'NONE', #359, #452, #324, .T. ) ;
#93 = ADVANCED_FACE ( 'NONE', ( #275 ), #257, .F. ) ;
#94 = VERTEX_POINT ( 'NONE', #672 ) ;
#95 = SURFACE_STYLE_FILL_AREA ( #655 ) ;
#96 = CARTESIAN_POINT ( 'NONE',  ( -46.00000000000000000, -74.50000000000000000, -27.95084971874737079 ) ) ;
#97 = ORIENTED_EDGE ( 'NONE', *, *, #173, .F. ) ;
#98 = EDGE_CURVE ( 'NONE', #245, #155, #44, .T. ) ;
#99 = CARTESIAN_POINT ( 'NONE',  ( 44.99999999999994316, 63.00000000000000000, 0.0000000000000000000 ) ) ;
#100 = CARTESIAN_POINT ( 'NONE',  ( 20.99999999999999645, -62.00000000000000000, 0.0000000000000000000 ) ) ;
#101 = ORIENTED_EDGE ( 'NONE', *, *, #689, .T. ) ;
#102 = FACE_OUTER_BOUND ( 'NONE', #317, .T. ) ;
#103 = AXIS2_PLACEMENT_3D ( 'NONE', #499, #389, #315 ) ;
#104 = CARTESIAN_POINT ( 'NONE',  ( -45.00000000000000000, 62.00000000000000000, -27.95084971874737079 ) ) ;
#105 = ORIENTED_EDGE ( 'NONE', *, *, #323, .F. ) ;
#106 = VECTOR ( 'NONE', #165, 1000.000000000000000 ) ;
#107 = CARTESIAN_POINT ( 'NONE',  ( 44.99999999999994316, 62.00000000000000000, -27.95084971874737079 ) ) ;
#108 = DIRECTION ( 'NONE',  ( 0.0000000000000000000, -0.0000000000000000000, -1.000000000000000000 ) ) ;
#109 = EDGE_LOOP ( 'NONE', ( #115, #575, #647, #320 ) ) ;
#110 = LINE ( 'NONE', #566, #236 ) ;
#111 = LINE ( 'NONE', #56, #184 ) ;
#112 = EDGE_LOOP ( 'NONE', ( #530, #658, #51, #599 ) ) ;
#113 = DIRECTION ( 'NONE',  ( 0.0000000000000000000, 1.000000000000000000, 0.0000000000000000000 ) ) ;
#114 = DIRECTION ( 'NONE',  ( 0.0000000000000000000, -1.000000000000000000, 0.0000000000000000000 ) ) ;
#115 = ORIENTED_EDGE ( 'NONE', *, *, #265, .T. ) ;
#116 = EDGE_CURVE ( 'NONE', #221, #538, #326, .T. ) ;
#117 = EDGE_CURVE ( 'NONE', #371, #221, #207, .T. ) ;
#118 = DIRECTION ( 'NONE',  ( -1.000000000000000000, 0.0000000000000000000, 0.0000000000000000000 ) ) ;
#119 = DIRECTION ( 'NONE',  ( 0.0000000000000000000, -0.0000000000000000000, 1.000000000000000000 ) ) ;
#120 = CIRCLE ( 'NONE', #596, 1.000000000000000888 ) ;
#121 = DIRECTION ( 'NONE',  ( -1.000000000000000000, 0.0000000000000000000, 0.0000000000000000000 ) ) ;
#122 = EDGE_CURVE ( 'NONE', #424, #651, #50, .T. ) ;
#123 = DIRECTION ( 'NONE',  ( -0.0000000000000000000, -0.0000000000000000000, 1.000000000000000000 ) ) ;
#124 = AXIS2_PLACEMENT_3D ( 'NONE', #576, #444, #436 ) ;
#125 = CARTESIAN_POINT ( 'NONE',  ( -46.00000000000000000, -73.50000000000000000, 3.000000000000000000 ) ) ;
#126 = CARTESIAN_POINT ( 'NONE',  ( -46.00000000000000000, 74.50000000000000000, 3.000000000000000000 ) ) ;
#127 = ORIENTED_EDGE ( 'NONE', *, *, #500, .T. ) ;
#128 = DIRECTION ( 'NONE',  ( 0.0000000000000000000, 0.0000000000000000000, 1.000000000000000000 ) ) ;
#129 = ORIENTED_EDGE ( 'NONE', *, *, #122, .F. ) ;
#130 = EDGE_CURVE ( 'NONE', #381, #363, #503, .T. ) ;
#131 = ORIENTED_EDGE ( 'NONE', *, *, #694, .T. ) ;
#132 = CARTESIAN_POINT ( 'NONE',  ( 20.99999999999999645, -62.00000000000000000, 3.000000000000000000 ) ) ;
#133 = DIRECTION ( 'NONE',  ( 0.0000000000000000000, -1.000000000000000000, 0.0000000000000000000 ) ) ;
#134 = ORIENTED_EDGE ( 'NONE', *, *, #534, .T. ) ;
#135 = AXIS2_PLACEMENT_3D ( 'NONE', #228, #627, #679 ) ;
#136 = CARTESIAN_POINT ( 'NONE',  ( -45.00000000000000000, 63.00000000000000000, -27.95084971874737079 ) ) ;
#137 = ORIENTED_EDGE ( 'NONE', *, *, #567, .T. ) ;
#138 = AXIS2_PLACEMENT_3D ( 'NONE', #514, #8, #336 ) ;
#139 = EDGE_LOOP ( 'NONE', ( #3, #7, #718, #234 ) ) ;
#140 = DIRECTION ( 'NONE',  ( 1.000000000000000000, 0.0000000000000000000, 0.0000000000000000000 ) ) ;
#141 = ADVANCED_FACE ( 'NONE', ( #610 ), #595, .T. ) ;
#142 = CARTESIAN_POINT ( 'NONE',  ( 20.99999999999999645, -74.50000000000000000, 3.000000000000000000 ) ) ;
#143 = VERTEX_POINT ( 'NONE', #100 ) ;
#144 = LINE ( 'NONE', #206, #249 ) ;
#145 = DIRECTION ( 'NONE',  ( 0.0000000000000000000, 0.0000000000000000000, 1.000000000000000000 ) ) ;
#146 = ADVANCED_FACE ( 'NONE', ( #211 ), #653, .T. ) ;
#147 = ORIENTED_EDGE ( 'NONE', *, *, #727, .F. ) ;
#148 = CARTESIAN_POINT ( 'NONE',  ( -20.99999999999999645, -62.00000000000000000, 0.0000000000000000000 ) ) ;
#149 = DIRECTION ( 'NONE',  ( 1.000000000000000000, 0.0000000000000000000, 0.0000000000000000000 ) ) ;
#150 = AXIS2_PLACEMENT_3D ( 'NONE', #621, #400, #690 ) ;
#151 = ORIENTED_EDGE ( 'NONE', *, *, #272, .F. ) ;
#152 = DIRECTION ( 'NONE',  ( -1.000000000000000000, 0.0000000000000000000, 0.0000000000000000000 ) ) ;
#153 = AXIS2_PLACEMENT_3D ( 'NONE', #136, #303, #581 ) ;
#154 = FACE_OUTER_BOUND ( 'NONE', #542, .T. ) ;
#155 = VERTEX_POINT ( 'NONE', #495 ) ;
#156 = DIRECTION ( 'NONE',  ( 0.0000000000000000000, 0.0000000000000000000, -1.000000000000000000 ) ) ;
#157 = DIRECTION ( 'NONE',  ( 0.0000000000000000000, 0.0000000000000000000, -1.000000000000000000 ) ) ;
#158 = EDGE_LOOP ( 'NONE', ( #416, #504, #545, #391 ) ) ;
#159 = FACE_OUTER_BOUND ( 'NONE', #217, .T. ) ;
#160 = EDGE_CURVE ( 'NONE', #651, #334, #725, .T. ) ;
#161 = DIRECTION ( 'NONE',  ( -0.0000000000000000000, 0.0000000000000000000, -1.000000000000000000 ) ) ;
#162 = VERTEX_POINT ( 'NONE', #271 ) ;
#163 = DIRECTION ( 'NONE',  ( -1.000000000000000000, 0.0000000000000000000, 0.0000000000000000000 ) ) ;
#164 = ORIENTED_EDGE ( 'NONE', *, *, #689, .F. ) ;
#165 = DIRECTION ( 'NONE',  ( 0.0000000000000000000, 0.0000000000000000000, 1.000000000000000000 ) ) ;
#166 = DIRECTION ( 'NONE',  ( -1.000000000000000000, 0.0000000000000000000, 0.0000000000000000000 ) ) ;
#167 = EDGE_CURVE ( 'NONE', #486, #375, #75, .T. ) ;
#168 = EDGE_CURVE ( 'NONE', #384, #654, #43, .T. ) ;
#169 = VERTEX_POINT ( 'NONE', #457 ) ;
#170 = CARTESIAN_POINT ( 'NONE',  ( 45.99999999999994316, 73.50000000000000000, 3.000000000000000000 ) ) ;
#171 = DIRECTION ( 'NONE',  ( -1.000000000000000000, 0.0000000000000000000, -0.0000000000000000000 ) ) ;
#172 = ORIENTED_EDGE ( 'NONE', *, *, #339, .F. ) ;
#173 = EDGE_CURVE ( 'NONE', #143, #536, #622, .T. ) ;
#174 = CARTESIAN_POINT ( 'NONE',  ( 0.0000000000000000000, 0.0000000000000000000, 0.0000000000000000000 ) ) ;
#175 = CARTESIAN_POINT ( 'NONE',  ( -46.00000000000000000, 73.50000000000000000, 0.0000000000000000000 ) ) ;
#176 = CARTESIAN_POINT ( 'NONE',  ( -21.00000000000000355, 74.50000000000000000, 3.000000000000000000 ) ) ;
#177 = DIRECTION ( 'NONE',  ( -1.000000000000000000, 0.0000000000000000000, 0.0000000000000000000 ) ) ;
#178 = VECTOR ( 'NONE', #540, 1000.000000000000000 ) ;
#179 = CARTESIAN_POINT ( 'NONE',  ( -21.00000000000000355, 74.50000000000000000, 0.0000000000000000000 ) ) ;
#180 = PLANE ( 'NONE',  #124 ) ;
#181 = ADVANCED_FACE ( 'NONE', ( #5 ), #687, .F. ) ;
#182 = AXIS2_PLACEMENT_3D ( 'NONE', #99, #219, #118 ) ;
#183 = DIRECTION ( 'NONE',  ( -1.000000000000000000, 0.0000000000000000000, 0.0000000000000000000 ) ) ;
#184 = VECTOR ( 'NONE', #337, 1000.000000000000000 ) ;
#185 = VECTOR ( 'NONE', #637, 1000.000000000000000 ) ;
#186 = DIRECTION ( 'NONE',  ( -0.0000000000000000000, -1.000000000000000000, -0.0000000000000000000 ) ) ;
#187 = LINE ( 'NONE', #126, #669 ) ;
#188 = FACE_OUTER_BOUND ( 'NONE', #685, .T. ) ;
#189 = ADVANCED_FACE ( 'NONE', ( #506 ), #287, .F. ) ;
#190 = DIRECTION ( 'NONE',  ( -0.0000000000000000000, -0.0000000000000000000, 1.000000000000000000 ) ) ;
#191 = ORIENTED_EDGE ( 'NONE', *, *, #122, .T. ) ;
#192 = AXIS2_PLACEMENT_3D ( 'NONE', #560, #123, #615 ) ;
#193 = VERTEX_POINT ( 'NONE', #515 ) ;
#194 = EDGE_CURVE ( 'NONE', #538, #728, #348, .T. ) ;
#195 = PRODUCT_DEFINITION_CONTEXT ( 'detailed design', #447, 'design' ) ;
#196 = CARTESIAN_POINT ( 'NONE',  ( 20.99999999999999645, 62.00000000000001421, 0.0000000000000000000 ) ) ;
#197 = PLANE ( 'NONE',  #713 ) ;
#198 = PRESENTATION_LAYER_ASSIGNMENT (  '', '', ( #660 ) ) ;
#199 = ORIENTED_EDGE ( 'NONE', *, *, #212, .F. ) ;
#200 = DIRECTION ( 'NONE',  ( 0.0000000000000000000, 0.0000000000000000000, 1.000000000000000000 ) ) ;
#201 = CARTESIAN_POINT ( 'NONE',  ( 20.99999999999994316, 62.00000000000000000, 0.0000000000000000000 ) ) ;
#202 = ORIENTED_EDGE ( 'NONE', *, *, #130, .F. ) ;
#203 = CARTESIAN_POINT ( 'NONE',  ( 45.99999999999994316, 73.50000000000000000, 0.0000000000000000000 ) ) ;
#204 = DIRECTION ( 'NONE',  ( -0.0000000000000000000, -0.0000000000000000000, -1.000000000000000000 ) ) ;
#205 = VERTEX_POINT ( 'NONE', #125 ) ;
#206 = CARTESIAN_POINT ( 'NONE',  ( 46.00000000000000000, -63.00000000000000000, -27.95084971874737079 ) ) ;
#207 = LINE ( 'NONE', #552, #13 ) ;
#208 = ORIENTED_EDGE ( 'NONE', *, *, #534, .F. ) ;
#209 = CARTESIAN_POINT ( 'NONE',  ( -45.00000000000000000, 74.50000000000000000, 3.000000000000000000 ) ) ;
#210 = VECTOR ( 'NONE', #413, 1000.000000000000000 ) ;
#211 = FACE_OUTER_BOUND ( 'NONE', #435, .T. ) ;
#212 = EDGE_CURVE ( 'NONE', #482, #371, #568, .T. ) ;
#213 = EDGE_LOOP ( 'NONE', ( #585, #308, #549, #304 ) ) ;
#214 = DIRECTION ( 'NONE',  ( 0.0000000000000000000, 0.0000000000000000000, 1.000000000000000000 ) ) ;
#215 = CARTESIAN_POINT ( 'NONE',  ( -45.00000000000000000, -63.00000000000000000, 2.999999999999999112 ) ) ;
#216 = AXIS2_PLACEMENT_3D ( 'NONE', #470, #573, #369 ) ;
#217 = EDGE_LOOP ( 'NONE', ( #147, #131, #648, #338 ) ) ;
#218 = EDGE_CURVE ( 'NONE', #155, #460, #62, .T. ) ;
#219 = DIRECTION ( 'NONE',  ( 0.0000000000000000000, 0.0000000000000000000, -1.000000000000000000 ) ) ;
#220 = CARTESIAN_POINT ( 'NONE',  ( 45.99999999999994316, 74.50000000000000000, 0.0000000000000000000 ) ) ;
#221 = VERTEX_POINT ( 'NONE', #12 ) ;
#222 = CIRCLE ( 'NONE', #182, 1.000000000000000888 ) ;
#223 = LINE ( 'NONE', #107, #106 ) ;
#224 = DIRECTION ( 'NONE',  ( 0.0000000000000000000, 1.000000000000000000, 0.0000000000000000000 ) ) ;
#225 = AXIS2_PLACEMENT_3D ( 'NONE', #525, #695, #183 ) ;
#226 = ORIENTED_EDGE ( 'NONE', *, *, #727, .T. ) ;
#227 = CARTESIAN_POINT ( 'NONE',  ( -46.00000000000000000, -74.50000000000000000, 3.000000000000000000 ) ) ;
#228 = CARTESIAN_POINT ( 'NONE',  ( -20.99999999999999645, -62.00000000000000000, -27.95084971874737079 ) ) ;
#229 = EDGE_CURVE ( 'NONE', #74, #394, #393, .T. ) ;
#230 = ORIENTED_EDGE ( 'NONE', *, *, #680, .F. ) ;
#231 = LINE ( 'NONE', #176, #611 ) ;
#232 = PLANE ( 'NONE',  #135 ) ;
#233 = VECTOR ( 'NONE', #463, 1000.000000000000000 ) ;
#234 = ORIENTED_EDGE ( 'NONE', *, *, #370, .T. ) ;
#235 = DIRECTION ( 'NONE',  ( 0.0000000000000000000, 0.0000000000000000000, 1.000000000000000000 ) ) ;
#236 = VECTOR ( 'NONE', #52, 1000.000000000000000 ) ;
#237 = DIRECTION ( 'NONE',  ( -0.0000000000000000000, 0.0000000000000000000, -1.000000000000000000 ) ) ;
#238 = ADVANCED_FACE ( 'NONE', ( #571 ), #232, .T. ) ;
#239 = DIRECTION ( 'NONE',  ( 0.0000000000000000000, -1.000000000000000000, 0.0000000000000000000 ) ) ;
#240 = DIRECTION ( 'NONE',  ( -1.000000000000000000, 0.0000000000000000000, 0.0000000000000000000 ) ) ;
#241 = FACE_OUTER_BOUND ( 'NONE', #425, .T. ) ;
#242 = CARTESIAN_POINT ( 'NONE',  ( -21.00000000000001066, 62.00000000000000000, -27.95084971874737079 ) ) ;
#243 = EDGE_CURVE ( 'NONE', #452, #245, #548, .T. ) ;
#244 = AXIS2_PLACEMENT_3D ( 'NONE', #76, #302, #352 ) ;
#245 = VERTEX_POINT ( 'NONE', #53 ) ;
#246 = FACE_OUTER_BOUND ( 'NONE', #419, .T. ) ;
#247 = LINE ( 'NONE', #475, #485 ) ;
#248 = ORIENTED_EDGE ( 'NONE', *, *, #339, .T. ) ;
#249 = VECTOR ( 'NONE', #214, 1000.000000000000000 ) ;
#250 = CARTESIAN_POINT ( 'NONE',  ( -46.00000000000000000, -73.50000000000000000, 2.999999999999999112 ) ) ;
#251 = DIRECTION ( 'NONE',  ( 0.0000000000000000000, -1.000000000000000000, 0.0000000000000000000 ) ) ;
#252 = ORIENTED_EDGE ( 'NONE', *, *, #459, .F. ) ;
#253 = ORIENTED_EDGE ( 'NONE', *, *, #343, .T. ) ;
#254 = ORIENTED_EDGE ( 'NONE', *, *, #511, .T. ) ;
#255 = VECTOR ( 'NONE', #442, 1000.000000000000000 ) ;
#256 = CARTESIAN_POINT ( 'NONE',  ( -46.00000000000000000, -63.00000000000000000, 3.000000000000000000 ) ) ;
#257 = PLANE ( 'NONE',  #636 ) ;
#258 = AXIS2_PLACEMENT_3D ( 'NONE', #42, #156, #152 ) ;
#259 = ORIENTED_EDGE ( 'NONE', *, *, #562, .F. ) ;
#260 = LINE ( 'NONE', #209, #309 ) ;
#261 = DIRECTION ( 'NONE',  ( 1.000000000000000000, 0.0000000000000000000, 0.0000000000000000000 ) ) ;
#262 = VERTEX_POINT ( 'NONE', #397 ) ;
#263 = AXIS2_PLACEMENT_3D ( 'NONE', #266, #374, #161 ) ;
#264 =( LENGTH_UNIT ( ) NAMED_UNIT ( * ) SI_UNIT ( .MILLI., .METRE. ) );
#265 = EDGE_CURVE ( 'NONE', #728, #37, #64, .T. ) ;
#266 = CARTESIAN_POINT ( 'NONE',  ( 45.99999999999994316, 74.50000000000000000, -27.95084971874737079 ) ) ;
#267 = EDGE_CURVE ( 'NONE', #162, #460, #57, .T. ) ;
#268 = CIRCLE ( 'NONE', #378, 1.000000000000000888 ) ;
#269 = ORIENTED_EDGE ( 'NONE', *, *, #620, .F. ) ;
#270 = SURFACE_SIDE_STYLE ('',( #95 ) ) ;
#271 = CARTESIAN_POINT ( 'NONE',  ( 44.99999999999991473, 74.50000000000000000, 0.0000000000000000000 ) ) ;
#272 = EDGE_CURVE ( 'NONE', #728, #94, #509, .T. ) ;
#273 = ORIENTED_EDGE ( 'NONE', *, *, #597, .T. ) ;
#274 = LINE ( 'NONE', #396, #390 ) ;
#275 = FACE_OUTER_BOUND ( 'NONE', #325, .T. ) ;
#276 = ORIENTED_EDGE ( 'NONE', *, *, #694, .F. ) ;
#277 = EDGE_CURVE ( 'NONE', #245, #612, #350, .T. ) ;
#278 = DIRECTION ( 'NONE',  ( 0.0000000000000000000, 0.0000000000000000000, 1.000000000000000000 ) ) ;
#279 = CARTESIAN_POINT ( 'NONE',  ( -45.00000000000000000, -73.50000000000000000, 2.999999999999999112 ) ) ;
#280 = ORIENTED_EDGE ( 'NONE', *, *, #168, .T. ) ;
#281 = DIRECTION ( 'NONE',  ( -0.0000000000000000000, 1.000000000000000000, 0.0000000000000000000 ) ) ;
#282 = ADVANCED_FACE ( 'NONE', ( #572 ), #68, .T. ) ;
#283 = DIRECTION ( 'NONE',  ( -0.0000000000000000000, -0.0000000000000000000, 1.000000000000000000 ) ) ;
#284 = VECTOR ( 'NONE', #300, 1000.000000000000000 ) ;
#285 = ORIENTED_EDGE ( 'NONE', *, *, #722, .T. ) ;
#286 = LINE ( 'NONE', #407, #330 ) ;
#287 = PLANE ( 'NONE',  #707 ) ;
#288 = ORIENTED_EDGE ( 'NONE', *, *, #343, .F. ) ;
#289 = DIRECTION ( 'NONE',  ( -1.000000000000000000, -0.0000000000000000000, -0.0000000000000000000 ) ) ;
#290 = DIRECTION ( 'NONE',  ( 0.0000000000000000000, 0.0000000000000000000, -1.000000000000000000 ) ) ;
#291 = AXIS2_PLACEMENT_3D ( 'NONE', #96, #544, #490 ) ;
#292 = EDGE_CURVE ( 'NONE', #349, #162, #111, .T. ) ;
#293 = VECTOR ( 'NONE', #113, 1000.000000000000000 ) ;
#294 = DIRECTION ( 'NONE',  ( -0.0000000000000000000, 1.000000000000000000, -0.0000000000000000000 ) ) ;
#295 = AXIS2_PLACEMENT_3D ( 'NONE', #402, #251, #709 ) ;
#296 = DIRECTION ( 'NONE',  ( -0.0000000000000000000, -0.0000000000000000000, 1.000000000000000000 ) ) ;
#297 = ORIENTED_EDGE ( 'NONE', *, *, #98, .T. ) ;
#298 = EDGE_CURVE ( 'NONE', #205, #193, #120, .T. ) ;
#299 = EDGE_CURVE ( 'NONE', #37, #205, #9, .T. ) ;
#300 = DIRECTION ( 'NONE',  ( 0.0000000000000000000, -0.0000000000000000000, 1.000000000000000000 ) ) ;
#301 = ORIENTED_EDGE ( 'NONE', *, *, #605, .F. ) ;
#302 = DIRECTION ( 'NONE',  ( 0.0000000000000000000, 0.0000000000000000000, 1.000000000000000000 ) ) ;
#303 = DIRECTION ( 'NONE',  ( 0.0000000000000000000, 0.0000000000000000000, 1.000000000000000000 ) ) ;
#304 = ORIENTED_EDGE ( 'NONE', *, *, #160, .F. ) ;
#305 = ORIENTED_EDGE ( 'NONE', *, *, #701, .T. ) ;
#306 =( NAMED_UNIT ( * ) PLANE_ANGLE_UNIT ( ) SI_UNIT ( $, .RADIAN. ) );
#307 = CARTESIAN_POINT ( 'NONE',  ( -44.99999999999999289, 74.50000000000000000, 3.000000000000000000 ) ) ;
#308 = ORIENTED_EDGE ( 'NONE', *, *, #500, .F. ) ;
#309 = VECTOR ( 'NONE', #200, 1000.000000000000000 ) ;
#310 = ORIENTED_EDGE ( 'NONE', *, *, #356, .F. ) ;
#311 = CIRCLE ( 'NONE', #535, 1.000000000000000888 ) ;
#312 = ORIENTED_EDGE ( 'NONE', *, *, #267, .T. ) ;
#313 = ORIENTED_EDGE ( 'NONE', *, *, #218, .F. ) ;
#314 = DIRECTION ( 'NONE',  ( 0.0000000000000000000, 0.0000000000000000000, -1.000000000000000000 ) ) ;
#315 = DIRECTION ( 'NONE',  ( -1.000000000000000000, 0.0000000000000000000, 0.0000000000000000000 ) ) ;
#316 = VECTOR ( 'NONE', #49, 1000.000000000000000 ) ;
#317 = EDGE_LOOP ( 'NONE', ( #558, #539, #105, #469 ) ) ;
#318 = SURFACE_STYLE_USAGE ( .BOTH. , #270 ) ;
#319 = CYLINDRICAL_SURFACE ( 'NONE', #59, 1.000000000000000888 ) ;
#320 = ORIENTED_EDGE ( 'NONE', *, *, #194, .T. ) ;
#321 = EDGE_CURVE ( 'NONE', #394, #654, #526, .T. ) ;
#322 = DIRECTION ( 'NONE',  ( -1.000000000000000000, 0.0000000000000000000, 0.0000000000000000000 ) ) ;
#323 = EDGE_CURVE ( 'NONE', #612, #349, #380, .T. ) ;
#324 = LINE ( 'NONE', #657, #663 ) ;
#325 = EDGE_LOOP ( 'NONE', ( #172, #705, #399, #27 ) ) ;
#326 = CIRCLE ( 'NONE', #580, 1.000000000000000888 ) ;
#327 = CARTESIAN_POINT ( 'NONE',  ( 44.99999999999994316, 73.50000000000000000, -27.95084971874737079 ) ) ;
#328 = CARTESIAN_POINT ( 'NONE',  ( -46.00000000000000000, 73.50000000000000000, 3.000000000000000000 ) ) ;
#329 = ADVANCED_FACE ( 'NONE', ( #246 ), #362, .T. ) ;
#330 = VECTOR ( 'NONE', #121, 1000.000000000000000 ) ;
#331 = ORIENTED_EDGE ( 'NONE', *, *, #597, .F. ) ;
#332 = FACE_OUTER_BOUND ( 'NONE', #715, .T. ) ;
#333 = CARTESIAN_POINT ( 'NONE',  ( 20.99999999999999645, -74.50000000000000000, 0.0000000000000000000 ) ) ;
#334 = VERTEX_POINT ( 'NONE', #649 ) ;
#335 = VECTOR ( 'NONE', #667, 1000.000000000000000 ) ;
#336 = DIRECTION ( 'NONE',  ( -1.000000000000000000, 0.0000000000000000000, 0.0000000000000000000 ) ) ;
#337 = DIRECTION ( 'NONE',  ( -0.0000000000000000000, -0.0000000000000000000, -1.000000000000000000 ) ) ;
#338 = ORIENTED_EDGE ( 'NONE', *, *, #173, .T. ) ;
#339 = EDGE_CURVE ( 'NONE', #58, #371, #21, .T. ) ;
#340 = DIRECTION ( 'NONE',  ( -1.000000000000000000, 0.0000000000000000000, 0.0000000000000000000 ) ) ;
#341 = DIRECTION ( 'NONE',  ( 0.0000000000000000000, 0.0000000000000000000, 1.000000000000000000 ) ) ;
#342 = ORIENTED_EDGE ( 'NONE', *, *, #38, .F. ) ;
#343 = EDGE_CURVE ( 'NONE', #381, #359, #635, .T. ) ;
#344 = CARTESIAN_POINT ( 'NONE',  ( 46.00000000000000000, -74.50000000000000000, 3.000000000000000000 ) ) ;
#345 = DIRECTION ( 'NONE',  ( -0.0000000000000000000, -0.0000000000000000000, -1.000000000000000000 ) ) ;
#346 = AXIS2_PLACEMENT_3D ( 'NONE', #415, #190, #646 ) ;
#347 = CARTESIAN_POINT ( 'NONE',  ( -44.99999999999999289, 74.50000000000000000, 0.0000000000000000000 ) ) ;
#348 = LINE ( 'NONE', #630, #418 ) ;
#349 = VERTEX_POINT ( 'NONE', #73 ) ;
#350 = LINE ( 'NONE', #401, #662 ) ;
#351 = VERTEX_POINT ( 'NONE', #641 ) ;
#352 = DIRECTION ( 'NONE',  ( 1.000000000000000000, 0.0000000000000000000, 0.0000000000000000000 ) ) ;
#353 = VECTOR ( 'NONE', #614, 1000.000000000000000 ) ;
#354 = DIRECTION ( 'NONE',  ( 0.0000000000000000000, -1.000000000000000000, 0.0000000000000000000 ) ) ;
#355 = VERTEX_POINT ( 'NONE', #307 ) ;
#356 = EDGE_CURVE ( 'NONE', #384, #80, #18, .T. ) ;
#357 = SHAPE_DEFINITION_REPRESENTATION ( #666, #673 ) ;
#358 = CYLINDRICAL_SURFACE ( 'NONE', #216, 1.000000000000000888 ) ;
#359 = VERTEX_POINT ( 'NONE', #474 ) ;
#360 = APPLICATION_PROTOCOL_DEFINITION ( 'draft international standard', 'automotive_design', 1998, #409 ) ;
#361 = ADVANCED_FACE ( 'NONE', ( #528 ), #366, .T. ) ;
#362 = CYLINDRICAL_SURFACE ( 'NONE', #153, 1.000000000000000888 ) ;
#363 = VERTEX_POINT ( 'NONE', #708 ) ;
#364 = ORIENTED_EDGE ( 'NONE', *, *, #160, .T. ) ;
#365 =( LENGTH_UNIT ( ) NAMED_UNIT ( * ) SI_UNIT ( .MILLI., .METRE. ) );
#366 = CYLINDRICAL_SURFACE ( 'NONE', #625, 1.000000000000000888 ) ;
#367 = LINE ( 'NONE', #78, #185 ) ;
#368 = ORIENTED_EDGE ( 'NONE', *, *, #656, .F. ) ;
#369 = DIRECTION ( 'NONE',  ( 1.000000000000000000, 0.0000000000000000000, 0.0000000000000000000 ) ) ;
#370 = EDGE_CURVE ( 'NONE', #80, #58, #532, .T. ) ;
#371 = VERTEX_POINT ( 'NONE', #583 ) ;
#372 = ORIENTED_EDGE ( 'NONE', *, *, #116, .T. ) ;
#373 = CARTESIAN_POINT ( 'NONE',  ( 46.00000000000000000, -63.00000000000000000, 3.000000000000000000 ) ) ;
#374 = DIRECTION ( 'NONE',  ( 1.000000000000000000, 0.0000000000000000000, -0.0000000000000000000 ) ) ;
#375 = VERTEX_POINT ( 'NONE', #83 ) ;
#376 = LINE ( 'NONE', #601, #79 ) ;
#377 = LINE ( 'NONE', #333, #255 ) ;
#378 = AXIS2_PLACEMENT_3D ( 'NONE', #505, #559, #682 ) ;
#379 = ADVANCED_FACE ( 'NONE', ( #29 ), #358, .T. ) ;
#380 = CIRCLE ( 'NONE', #346, 1.000000000000000888 ) ;
#381 = VERTEX_POINT ( 'NONE', #196 ) ;
#382 = CARTESIAN_POINT ( 'NONE',  ( -45.00000000000000000, 62.00000000000000000, 3.000000000000000000 ) ) ;
#383 = DIRECTION ( 'NONE',  ( -0.0000000000000000000, -0.0000000000000000000, 1.000000000000000000 ) ) ;
#384 = VERTEX_POINT ( 'NONE', #422 ) ;
#385 = CARTESIAN_POINT ( 'NONE',  ( 20.99999999999999645, -62.00000000000000000, -27.95084971874737079 ) ) ;
#386 = CARTESIAN_POINT ( 'NONE',  ( 45.00000000000000000, -74.50000000000000000, 3.000000000000000000 ) ) ;
#387 = ORIENTED_EDGE ( 'NONE', *, *, #272, .T. ) ;
#388 = VECTOR ( 'NONE', #204, 1000.000000000000000 ) ;
#389 = DIRECTION ( 'NONE',  ( -0.0000000000000000000, -0.0000000000000000000, 1.000000000000000000 ) ) ;
#390 = VECTOR ( 'NONE', #281, 1000.000000000000000 ) ;
#391 = ORIENTED_EDGE ( 'NONE', *, *, #299, .F. ) ;
#392 = CARTESIAN_POINT ( 'NONE',  ( -45.00000000000000000, -74.50000000000000000, 0.0000000000000000000 ) ) ;
#393 = LINE ( 'NONE', #175, #461 ) ;
#394 = VERTEX_POINT ( 'NONE', #411 ) ;
#395 = AXIS2_PLACEMENT_3D ( 'NONE', #609, #427, #322 ) ;
#396 = CARTESIAN_POINT ( 'NONE',  ( 46.00000000000000000, -74.50000000000000000, 0.0000000000000000000 ) ) ;
#397 = CARTESIAN_POINT ( 'NONE',  ( -46.00000000000000000, 63.00000000000000000, 3.000000000000000000 ) ) ;
#398 = PRODUCT_DEFINITION ( 'Êú', '', #483, #195 ) ;
#399 = ORIENTED_EDGE ( 'NONE', *, *, #17, .T. ) ;
#400 = DIRECTION ( 'NONE',  ( -1.000000000000000000, 0.0000000000000000000, 0.0000000000000000000 ) ) ;
#401 = CARTESIAN_POINT ( 'NONE',  ( 45.99999999999994316, 74.50000000000000000, 3.000000000000000000 ) ) ;
#402 = CARTESIAN_POINT ( 'NONE',  ( 20.99999999999994316, 62.00000000000000000, -27.95084971874737079 ) ) ;
#403 = ADVANCED_FACE ( 'NONE', ( #87 ), #523, .T. ) ;
#404 = EDGE_CURVE ( 'NONE', #162, #677, #692, .T. ) ;
#405 = DIRECTION ( 'NONE',  ( -1.000000000000000000, 0.0000000000000000000, -0.0000000000000000000 ) ) ;
#406 = CARTESIAN_POINT ( 'NONE',  ( -21.00000000000000355, -74.50000000000000000, 3.000000000000000000 ) ) ;
#407 = CARTESIAN_POINT ( 'NONE',  ( -20.99999999999999645, -62.00000000000000000, 0.0000000000000000000 ) ) ;
#408 = CARTESIAN_POINT ( 'NONE',  ( 20.99999999999999645, -62.00000000000000000, -27.95084971874737079 ) ) ;
#409 = APPLICATION_CONTEXT ( 'automotive_design' ) ;
#410 = LINE ( 'NONE', #634, #521 ) ;
#411 = CARTESIAN_POINT ( 'NONE',  ( -46.00000000000000000, 73.50000000000000000, 0.0000000000000000000 ) ) ;
#412 = VECTOR ( 'NONE', #631, 1000.000000000000000 ) ;
#413 = DIRECTION ( 'NONE',  ( -0.0000000000000000000, -1.000000000000000000, -0.0000000000000000000 ) ) ;
#414 = ORIENTED_EDGE ( 'NONE', *, *, #98, .F. ) ;
#415 = CARTESIAN_POINT ( 'NONE',  ( 44.99999999999994316, 73.50000000000000000, 2.999999999999999112 ) ) ;
#416 = ORIENTED_EDGE ( 'NONE', *, *, #511, .F. ) ;
#417 = CARTESIAN_POINT ( 'NONE',  ( -46.00000000000000000, 74.50000000000000000, 0.0000000000000000000 ) ) ;
#418 = VECTOR ( 'NONE', #345, 1000.000000000000000 ) ;
#419 = EDGE_LOOP ( 'NONE', ( #628, #86, #301, #501 ) ) ;
#420 = ORIENTED_EDGE ( 'NONE', *, *, #620, .T. ) ;
#421 = EDGE_CURVE ( 'NONE', #74, #262, #187, .T. ) ;
#422 = CARTESIAN_POINT ( 'NONE',  ( -45.00000000000000000, 62.00000000000000000, 0.0000000000000000000 ) ) ;
#423 = CIRCLE ( 'NONE', #594, 1.000000000000000888 ) ;
#424 = VERTEX_POINT ( 'NONE', #70 ) ;
#425 = EDGE_LOOP ( 'NONE', ( #448, #253, #565, #97 ) ) ;
#426 = UNCERTAINTY_MEASURE_WITH_UNIT (LENGTH_MEASURE( 1.000000000000000082E-05 ), #264, 'distance_accuracy_value', 'NONE');
#427 = DIRECTION ( 'NONE',  ( 0.0000000000000000000, 0.0000000000000000000, -1.000000000000000000 ) ) ;
#428 = CARTESIAN_POINT ( 'NONE',  ( 45.99999999999994316, 63.00000000000000000, -27.95084971874737079 ) ) ;
#429 = CIRCLE ( 'NONE', #258, 1.000000000000000888 ) ;
#430 = ORIENTED_EDGE ( 'NONE', *, *, #229, .F. ) ;
#431 = CARTESIAN_POINT ( 'NONE',  ( 20.99999999999999645, -62.00000000000000000, 3.000000000000000000 ) ) ;
#432 = EDGE_CURVE ( 'NONE', #334, #351, #311, .T. ) ;
#433 = CARTESIAN_POINT ( 'NONE',  ( -21.00000000000000355, 62.00000000000001421, 3.000000000000000000 ) ) ;
#434 = ADVANCED_FACE ( 'NONE', ( #468 ), #180, .T. ) ;
#435 = EDGE_LOOP ( 'NONE', ( #603, #489, #10, #297 ) ) ;
#436 = DIRECTION ( 'NONE',  ( 0.0000000000000000000, 0.0000000000000000000, -1.000000000000000000 ) ) ;
#437 = DIRECTION ( 'NONE',  ( -1.000000000000000000, 0.0000000000000000000, 0.0000000000000000000 ) ) ;
#438 = EDGE_CURVE ( 'NONE', #714, #486, #144, .T. ) ;
#439 = VECTOR ( 'NONE', #587, 1000.000000000000000 ) ;
#440 = ORIENTED_EDGE ( 'NONE', *, *, #194, .F. ) ;
#441 = LINE ( 'NONE', #90, #335 ) ;
#442 = DIRECTION ( 'NONE',  ( 0.0000000000000000000, 1.000000000000000000, 0.0000000000000000000 ) ) ;
#443 = EDGE_LOOP ( 'NONE', ( #164, #430, #342, #252 ) ) ;
#444 = DIRECTION ( 'NONE',  ( 1.000000000000000000, 0.0000000000000000000, 0.0000000000000000000 ) ) ;
#445 = AXIS2_PLACEMENT_3D ( 'NONE', #698, #239, #467 ) ;
#446 = DIRECTION ( 'NONE',  ( -1.000000000000000000, 0.0000000000000000000, 0.0000000000000000000 ) ) ;
#447 = APPLICATION_CONTEXT ( 'automotive_design' ) ;
#448 = ORIENTED_EDGE ( 'NONE', *, *, #65, .T. ) ;
#449 = CARTESIAN_POINT ( 'NONE',  ( -46.00000000000000000, 63.00000000000000000, 0.0000000000000000000 ) ) ;
#450 = CARTESIAN_POINT ( 'NONE',  ( -46.00000000000000000, -74.50000000000000000, 0.0000000000000000000 ) ) ;
#451 = COLOUR_RGB ( '',0.7921568627450980005, 0.8196078431372548767, 0.9333333333333333481 ) ;
#452 = VERTEX_POINT ( 'NONE', #724 ) ;
#453 = PLANE ( 'NONE',  #16 ) ;
#454 = DIRECTION ( 'NONE',  ( 0.0000000000000000000, 1.000000000000000000, 0.0000000000000000000 ) ) ;
#455 = ORIENTED_EDGE ( 'NONE', *, *, #404, .F. ) ;
#456 = LINE ( 'NONE', #675, #696 ) ;
#457 = CARTESIAN_POINT ( 'NONE',  ( 46.00000000000000000, -73.50000000000000000, 0.0000000000000000000 ) ) ;
#458 = ADVANCED_FACE ( 'NONE', ( #659 ), #546, .T. ) ;
#459 = EDGE_CURVE ( 'NONE', #677, #355, #260, .T. ) ;
#460 = VERTEX_POINT ( 'NONE', #203 ) ;
#461 = VECTOR ( 'NONE', #237, 1000.000000000000000 ) ;
#462 = PLANE ( 'NONE',  #150 ) ;
#463 = DIRECTION ( 'NONE',  ( 0.0000000000000000000, 0.0000000000000000000, 1.000000000000000000 ) ) ;
#464 = EDGE_CURVE ( 'NONE', #497, #143, #671, .T. ) ;
#465 = CYLINDRICAL_SURFACE ( 'NONE', #138, 1.000000000000000888 ) ;
#466 = CARTESIAN_POINT ( 'NONE',  ( -45.00000000000000000, -63.00000000000000000, 0.0000000000000000000 ) ) ;
#467 = DIRECTION ( 'NONE',  ( 0.0000000000000000000, -0.0000000000000000000, -1.000000000000000000 ) ) ;
#468 = FACE_OUTER_BOUND ( 'NONE', #665, .T. ) ;
#469 = ORIENTED_EDGE ( 'NONE', *, *, #554, .F. ) ;
#470 = CARTESIAN_POINT ( 'NONE',  ( -45.00000000000000000, -63.00000000000000000, -27.95084971874737079 ) ) ;
#471 = PRODUCT_RELATED_PRODUCT_CATEGORY ( 'part', '', ( #600 ) ) ;
#472 = VECTOR ( 'NONE', #128, 1000.000000000000000 ) ;
#473 = PLANE ( 'NONE',  #295 ) ;
#474 = CARTESIAN_POINT ( 'NONE',  ( 20.99999999999999645, 62.00000000000001421, 3.000000000000000000 ) ) ;
#475 = CARTESIAN_POINT ( 'NONE',  ( -21.00000000000001066, 62.00000000000000000, 3.000000000000000000 ) ) ;
#476 = ORIENTED_EDGE ( 'NONE', *, *, #265, .F. ) ;
#477 = CARTESIAN_POINT ( 'NONE',  ( -46.00000000000000000, -63.00000000000000000, 0.0000000000000000000 ) ) ;
#478 = UNCERTAINTY_MEASURE_WITH_UNIT (LENGTH_MEASURE( 1.000000000000000082E-05 ), #365, 'distance_accuracy_value', 'NONE');
#479 = CARTESIAN_POINT ( 'NONE',  ( 20.99999999999994316, 62.00000000000000000, -27.95084971874737079 ) ) ;
#480 = VECTOR ( 'NONE', #602, 1000.000000000000000 ) ;
#481 = ORIENTED_EDGE ( 'NONE', *, *, #17, .F. ) ;
#482 = VERTEX_POINT ( 'NONE', #148 ) ;
#483 = PRODUCT_DEFINITION_FORMATION_WITH_SPECIFIED_SOURCE ( '‰ª', '', #600, .NOT_KNOWN. ) ;
#484 = DIRECTION ( 'NONE',  ( -1.000000000000000000, 0.0000000000000000000, 0.0000000000000000000 ) ) ;
#485 = VECTOR ( 'NONE', #704, 1000.000000000000000 ) ;
#486 = VERTEX_POINT ( 'NONE', #373 ) ;
#487 = CARTESIAN_POINT ( 'NONE',  ( 45.00000000000000000, -63.00000000000000000, 0.0000000000000000000 ) ) ;
#488 = CARTESIAN_POINT ( 'NONE',  ( -21.00000000000000355, -74.50000000000000000, 0.0000000000000000000 ) ) ;
#489 = ORIENTED_EDGE ( 'NONE', *, *, #554, .T. ) ;
#490 = DIRECTION ( 'NONE',  ( 0.0000000000000000000, 0.0000000000000000000, 1.000000000000000000 ) ) ;
#491 = ADVANCED_FACE ( 'NONE', ( #159 ), #590, .T. ) ;
#492 = VECTOR ( 'NONE', #454, 1000.000000000000000 ) ;
#493 = ORIENTED_EDGE ( 'NONE', *, *, #720, .T. ) ;
#494 = DIRECTION ( 'NONE',  ( -1.000000000000000000, 0.0000000000000000000, 0.0000000000000000000 ) ) ;
#495 = CARTESIAN_POINT ( 'NONE',  ( 45.99999999999994316, 63.00000000000000000, 0.0000000000000000000 ) ) ;
#496 = AXIS2_PLACEMENT_3D ( 'NONE', #564, #290, #520 ) ;
#497 = VERTEX_POINT ( 'NONE', #593 ) ;
#498 = DIRECTION ( 'NONE',  ( 0.0000000000000000000, 1.000000000000000000, 0.0000000000000000000 ) ) ;
#499 = CARTESIAN_POINT ( 'NONE',  ( 45.00000000000000000, -63.00000000000000000, 2.999999999999999112 ) ) ;
#500 = EDGE_CURVE ( 'NONE', #351, #169, #441, .T. ) ;
#501 = ORIENTED_EDGE ( 'NONE', *, *, #638, .F. ) ;
#502 = CARTESIAN_POINT ( 'NONE',  ( -45.00000000000000000, -62.00000000000000000, -27.95084971874737079 ) ) ;
#503 = LINE ( 'NONE', #201, #480 ) ;
#504 = ORIENTED_EDGE ( 'NONE', *, *, #567, .F. ) ;
#505 = CARTESIAN_POINT ( 'NONE',  ( -45.00000000000000000, 63.00000000000000000, 2.999999999999999112 ) ) ;
#506 = FACE_OUTER_BOUND ( 'NONE', #20, .T. ) ;
#507 = MECHANICAL_DESIGN_GEOMETRIC_PRESENTATION_REPRESENTATION (  '', ( #660 ), #69 ) ;
#508 = ORIENTED_EDGE ( 'NONE', *, *, #243, .F. ) ;
#509 = CIRCLE ( 'NONE', #726, 1.000000000000000888 ) ;
#510 = FACE_OUTER_BOUND ( 'NONE', #443, .T. ) ;
#511 = EDGE_CURVE ( 'NONE', #424, #37, #429, .T. ) ;
#512 = DIRECTION ( 'NONE',  ( -1.000000000000000000, 0.0000000000000000000, 0.0000000000000000000 ) ) ;
#513 = EDGE_LOOP ( 'NONE', ( #45, #28, #561, #199 ) ) ;
#514 = CARTESIAN_POINT ( 'NONE',  ( -45.00000000000000000, 73.50000000000000000, 3.000000000000000000 ) ) ;
#515 = CARTESIAN_POINT ( 'NONE',  ( -44.99999999999999289, -74.50000000000000000, 3.000000000000000000 ) ) ;
#516 = ADVANCED_FACE ( 'NONE', ( #102 ), #35, .T. ) ;
#517 = AXIS2_PLACEMENT_3D ( 'NONE', #541, #36, #166 ) ;
#518 = ORIENTED_EDGE ( 'NONE', *, *, #656, .T. ) ;
#519 = LINE ( 'NONE', #344, #293 ) ;
#520 = DIRECTION ( 'NONE',  ( -1.000000000000000000, 0.0000000000000000000, 0.0000000000000000000 ) ) ;
#521 = VECTOR ( 'NONE', #640, 1000.000000000000000 ) ;
#522 =( NAMED_UNIT ( * ) SI_UNIT ( $, .STERADIAN. ) SOLID_ANGLE_UNIT ( ) );
#523 = PLANE ( 'NONE',  #445 ) ;
#524 = CARTESIAN_POINT ( 'NONE',  ( 45.00000000000000000, -73.50000000000000000, 3.000000000000000000 ) ) ;
#525 = CARTESIAN_POINT ( 'NONE',  ( -45.00000000000000000, 73.50000000000000000, 3.000000000000000000 ) ) ;
#526 = LINE ( 'NONE', #417, #697 ) ;
#527 = ORIENTED_EDGE ( 'NONE', *, *, #292, .T. ) ;
#528 = FACE_OUTER_BOUND ( 'NONE', #88, .T. ) ;
#529 = AXIS2_PLACEMENT_3D ( 'NONE', #2, #676, #163 ) ;
#530 = ORIENTED_EDGE ( 'NONE', *, *, #421, .F. ) ;
#531 = VERTEX_POINT ( 'NONE', #382 ) ;
#532 = LINE ( 'NONE', #242, #24 ) ;
#533 = ORIENTED_EDGE ( 'NONE', *, *, #277, .T. ) ;
#534 = EDGE_CURVE ( 'NONE', #193, #334, #376, .T. ) ;
#535 = AXIS2_PLACEMENT_3D ( 'NONE', #524, #296, #240 ) ;
#536 = VERTEX_POINT ( 'NONE', #431 ) ;
#537 =( NAMED_UNIT ( * ) PLANE_ANGLE_UNIT ( ) SI_UNIT ( $, .RADIAN. ) );
#538 = VERTEX_POINT ( 'NONE', #256 ) ;
#539 = ORIENTED_EDGE ( 'NONE', *, *, #292, .F. ) ;
#540 = DIRECTION ( 'NONE',  ( -1.000000000000000000, 0.0000000000000000000, 0.0000000000000000000 ) ) ;
#541 = CARTESIAN_POINT ( 'NONE',  ( -45.00000000000000000, 63.00000000000000000, 0.0000000000000000000 ) ) ;
#542 = EDGE_LOOP ( 'NONE', ( #582, #276, #23, #54 ) ) ;
#543 = EDGE_CURVE ( 'NONE', #497, #714, #710, .T. ) ;
#544 = DIRECTION ( 'NONE',  ( -1.000000000000000000, 0.0000000000000000000, 0.0000000000000000000 ) ) ;
#545 = ORIENTED_EDGE ( 'NONE', *, *, #298, .F. ) ;
#546 = CYLINDRICAL_SURFACE ( 'NONE', #395, 1.000000000000000888 ) ;
#547 = CARTESIAN_POINT ( 'NONE',  ( -21.00000000000000355, -74.50000000000000000, 3.000000000000000000 ) ) ;
#548 = CIRCLE ( 'NONE', #192, 1.000000000000000888 ) ;
#549 = ORIENTED_EDGE ( 'NONE', *, *, #432, .F. ) ;
#550 = DIRECTION ( 'NONE',  ( 1.000000000000000000, 0.0000000000000000000, 0.0000000000000000000 ) ) ;
#551 = MANIFOLD_SOLID_BREP ( '‘≤Ω«1', #613 ) ;
#552 = CARTESIAN_POINT ( 'NONE',  ( -20.99999999999999645, -62.00000000000000000, 3.000000000000000000 ) ) ;
#553 = AXIS2_PLACEMENT_3D ( 'NONE', #626, #55, #340 ) ;
#554 = EDGE_CURVE ( 'NONE', #460, #612, #456, .T. ) ;
#555 = ORIENTED_EDGE ( 'NONE', *, *, #543, .T. ) ;
#556 = DIRECTION ( 'NONE',  ( -1.000000000000000000, 0.0000000000000000000, 0.0000000000000000000 ) ) ;
#557 = DIRECTION ( 'NONE',  ( -0.0000000000000000000, -0.0000000000000000000, -1.000000000000000000 ) ) ;
#558 = ORIENTED_EDGE ( 'NONE', *, *, #267, .F. ) ;
#559 = DIRECTION ( 'NONE',  ( -0.0000000000000000000, -0.0000000000000000000, 1.000000000000000000 ) ) ;
#560 = CARTESIAN_POINT ( 'NONE',  ( 44.99999999999994316, 63.00000000000000000, 2.999999999999999112 ) ) ;
#561 = ORIENTED_EDGE ( 'NONE', *, *, #117, .F. ) ;
#562 = EDGE_CURVE ( 'NONE', #155, #363, #222, .T. ) ;
#563 = LINE ( 'NONE', #227, #6 ) ;
#564 = CARTESIAN_POINT ( 'NONE',  ( 44.99999999999994316, 73.50000000000000000, 0.0000000000000000000 ) ) ;
#565 = ORIENTED_EDGE ( 'NONE', *, *, #722, .F. ) ;
#566 = CARTESIAN_POINT ( 'NONE',  ( -46.00000000000000000, 63.00000000000000000, -27.95084971874737079 ) ) ;
#567 = EDGE_CURVE ( 'NONE', #193, #424, #11, .T. ) ;
#568 = LINE ( 'NONE', #15, #233 ) ;
#569 = LINE ( 'NONE', #63, #316 ) ;
#570 = VECTOR ( 'NONE', #632, 1000.000000000000000 ) ;
#571 = FACE_OUTER_BOUND ( 'NONE', #513, .T. ) ;
#572 = FACE_OUTER_BOUND ( 'NONE', #213, .T. ) ;
#573 = DIRECTION ( 'NONE',  ( 0.0000000000000000000, 0.0000000000000000000, 1.000000000000000000 ) ) ;
#574 = AXIS2_PLACEMENT_3D ( 'NONE', #717, #606, #108 ) ;
#575 = ORIENTED_EDGE ( 'NONE', *, *, #299, .T. ) ;
#576 = CARTESIAN_POINT ( 'NONE',  ( 46.00000000000000000, -74.50000000000000000, -27.95084971874737079 ) ) ;
#577 = ORIENTED_EDGE ( 'NONE', *, *, #605, .T. ) ;
#578 = EDGE_CURVE ( 'NONE', #169, #651, #33, .T. ) ;
#579 = ORIENTED_EDGE ( 'NONE', *, *, #459, .T. ) ;
#580 = AXIS2_PLACEMENT_3D ( 'NONE', #215, #383, #437 ) ;
#581 = DIRECTION ( 'NONE',  ( 1.000000000000000000, 0.0000000000000000000, 0.0000000000000000000 ) ) ;
#582 = ORIENTED_EDGE ( 'NONE', *, *, #543, .F. ) ;
#583 = CARTESIAN_POINT ( 'NONE',  ( -21.00000000000000355, -62.00000000000000000, 3.000000000000000000 ) ) ;
#584 = ORIENTED_EDGE ( 'NONE', *, *, #130, .T. ) ;
#585 = ORIENTED_EDGE ( 'NONE', *, *, #578, .F. ) ;
#586 = AXIS2_PLACEMENT_3D ( 'NONE', #385, #498, #604 ) ;
#587 = DIRECTION ( 'NONE',  ( 1.000000000000000000, 0.0000000000000000000, 0.0000000000000000000 ) ) ;
#588 = ORIENTED_EDGE ( 'NONE', *, *, #92, .T. ) ;
#589 = ORIENTED_EDGE ( 'NONE', *, *, #644, .F. ) ;
#590 = PLANE ( 'NONE',  #586 ) ;
#591 = CARTESIAN_POINT ( 'NONE',  ( 45.00000000000000000, -63.00000000000000000, -27.95084971874737079 ) ) ;
#592 = ORIENTED_EDGE ( 'NONE', *, *, #432, .T. ) ;
#593 = CARTESIAN_POINT ( 'NONE',  ( 45.00000000000000000, -62.00000000000000000, 0.0000000000000000000 ) ) ;
#594 = AXIS2_PLACEMENT_3D ( 'NONE', #60, #678, #556 ) ;
#595 = PLANE ( 'NONE',  #291 ) ;
#596 = AXIS2_PLACEMENT_3D ( 'NONE', #279, #283, #512 ) ;
#597 = EDGE_CURVE ( 'NONE', #349, #355, #231, .T. ) ;
#598 = VECTOR ( 'NONE', #557, 1000.000000000000000 ) ;
#599 = ORIENTED_EDGE ( 'NONE', *, *, #638, .T. ) ;
#600 = PRODUCT ( '\X2\4e0a7bb14f536321677f\X0\', '\X2\4e0a7bb14f536321677f\X0\', '', ( #81 ) ) ;
#601 = CARTESIAN_POINT ( 'NONE',  ( -21.00000000000000355, -74.50000000000000000, 3.000000000000000000 ) ) ;
#602 = DIRECTION ( 'NONE',  ( 1.000000000000000000, 0.0000000000000000000, 0.0000000000000000000 ) ) ;
#603 = ORIENTED_EDGE ( 'NONE', *, *, #218, .T. ) ;
#604 = DIRECTION ( 'NONE',  ( 0.0000000000000000000, -0.0000000000000000000, 1.000000000000000000 ) ) ;
#605 = EDGE_CURVE ( 'NONE', #262, #531, #268, .T. ) ;
#606 = DIRECTION ( 'NONE',  ( 0.0000000000000000000, -1.000000000000000000, 0.0000000000000000000 ) ) ;
#607 = VECTOR ( 'NONE', #341, 1000.000000000000000 ) ;
#608 = ORIENTED_EDGE ( 'NONE', *, *, #323, .T. ) ;
#609 = CARTESIAN_POINT ( 'NONE',  ( -45.00000000000000000, -73.50000000000000000, -27.95084971874737079 ) ) ;
#610 = FACE_OUTER_BOUND ( 'NONE', #109, .T. ) ;
#611 = VECTOR ( 'NONE', #289, 1000.000000000000000 ) ;
#612 = VERTEX_POINT ( 'NONE', #170 ) ;
#613 = CLOSED_SHELL ( 'NONE', ( #26, #61, #93, #181, #189, #664, #434, #491, #238, #141, #639, #403, #22, #146, #516, #361, #84, #282, #458, #379, #629, #329 ) ) ;
#614 = DIRECTION ( 'NONE',  ( 0.0000000000000000000, -0.0000000000000000000, -1.000000000000000000 ) ) ;
#615 = DIRECTION ( 'NONE',  ( -1.000000000000000000, 0.0000000000000000000, 0.0000000000000000000 ) ) ;
#616 = ORIENTED_EDGE ( 'NONE', *, *, #404, .T. ) ;
#617 = CARTESIAN_POINT ( 'NONE',  ( 46.00000000000000000, -63.00000000000000000, 0.0000000000000000000 ) ) ;
#618 = CARTESIAN_POINT ( 'NONE',  ( 0.0000000000000000000, 0.0000000000000000000, 3.000000000000000000 ) ) ;
#619 = ORIENTED_EDGE ( 'NONE', *, *, #38, .T. ) ;
#620 = EDGE_CURVE ( 'NONE', #351, #486, #519, .T. ) ;
#621 = CARTESIAN_POINT ( 'NONE',  ( -46.00000000000000000, 74.50000000000000000, -27.95084971874737079 ) ) ;
#622 = LINE ( 'NONE', #408, #607 ) ;
#623 = AXIS2_PLACEMENT_3D ( 'NONE', #327, #314, #494 ) ;
#624 = DIRECTION ( 'NONE',  ( 0.0000000000000000000, 0.0000000000000000000, 1.000000000000000000 ) ) ;
#625 = AXIS2_PLACEMENT_3D ( 'NONE', #25, #703, #140 ) ;
#626 = CARTESIAN_POINT ( 'NONE',  ( 45.00000000000000000, -73.50000000000000000, 0.0000000000000000000 ) ) ;
#627 = DIRECTION ( 'NONE',  ( 0.0000000000000000000, 1.000000000000000000, -0.0000000000000000000 ) ) ;
#628 = ORIENTED_EDGE ( 'NONE', *, *, #168, .F. ) ;
#629 = ADVANCED_FACE ( 'NONE', ( #510 ), #465, .T. ) ;
#630 = CARTESIAN_POINT ( 'NONE',  ( -46.00000000000000000, -63.00000000000000000, -27.95084971874737079 ) ) ;
#631 = DIRECTION ( 'NONE',  ( -1.000000000000000000, -0.0000000000000000000, -0.0000000000000000000 ) ) ;
#632 = DIRECTION ( 'NONE',  ( -1.000000000000000000, -0.0000000000000000000, -0.0000000000000000000 ) ) ;
#633 =( GEOMETRIC_REPRESENTATION_CONTEXT ( 3 ) GLOBAL_UNCERTAINTY_ASSIGNED_CONTEXT ( ( #478 ) ) GLOBAL_UNIT_ASSIGNED_CONTEXT ( ( #365, #306, #522 ) ) REPRESENTATION_CONTEXT ( 'NONE', 'WORKASPACE' ) );
#634 = CARTESIAN_POINT ( 'NONE',  ( 20.99999999999999645, -74.50000000000000000, 3.000000000000000000 ) ) ;
#635 = LINE ( 'NONE', #479, #472 ) ;
#636 = AXIS2_PLACEMENT_3D ( 'NONE', #547, #261, #157 ) ;
#637 = DIRECTION ( 'NONE',  ( -0.0000000000000000000, -1.000000000000000000, -0.0000000000000000000 ) ) ;
#638 = EDGE_CURVE ( 'NONE', #654, #262, #110, .T. ) ;
#639 = ADVANCED_FACE ( 'NONE', ( #4 ), #462, .T. ) ;
#640 = DIRECTION ( 'NONE',  ( 0.0000000000000000000, 1.000000000000000000, 0.0000000000000000000 ) ) ;
#641 = CARTESIAN_POINT ( 'NONE',  ( 46.00000000000000000, -73.50000000000000000, 3.000000000000000000 ) ) ;
#642 = ORIENTED_EDGE ( 'NONE', *, *, #701, .F. ) ;
#643 = LINE ( 'NONE', #132, #412 ) ;
#644 = EDGE_CURVE ( 'NONE', #482, #94, #286, .T. ) ;
#645 = AXIS2_PLACEMENT_3D ( 'NONE', #406, #224, #119 ) ;
#646 = DIRECTION ( 'NONE',  ( -1.000000000000000000, 0.0000000000000000000, 0.0000000000000000000 ) ) ;
#647 = ORIENTED_EDGE ( 'NONE', *, *, #720, .F. ) ;
#648 = ORIENTED_EDGE ( 'NONE', *, *, #464, .T. ) ;
#649 = CARTESIAN_POINT ( 'NONE',  ( 44.99999999999997158, -74.50000000000000000, 3.000000000000000000 ) ) ;
#650 = EDGE_LOOP ( 'NONE', ( #191, #364, #208, #137 ) ) ;
#651 = VERTEX_POINT ( 'NONE', #1 ) ;
#652 = CARTESIAN_POINT ( 'NONE',  ( 20.99999999999999645, -62.00000000000000000, 0.0000000000000000000 ) ) ;
#653 = PLANE ( 'NONE',  #263 ) ;
#654 = VERTEX_POINT ( 'NONE', #449 ) ;
#655 = FILL_AREA_STYLE ('',( #716 ) ) ;
#656 = EDGE_CURVE ( 'NONE', #363, #452, #223, .T. ) ;
#657 = CARTESIAN_POINT ( 'NONE',  ( 20.99999999999994316, 62.00000000000000000, 3.000000000000000000 ) ) ;
#658 = ORIENTED_EDGE ( 'NONE', *, *, #229, .T. ) ;
#659 = FACE_OUTER_BOUND ( 'NONE', #158, .T. ) ;
#660 = STYLED_ITEM ( 'NONE', ( #729 ), #551 ) ;
#661 = DIRECTION ( 'NONE',  ( 1.000000000000000000, 0.0000000000000000000, 0.0000000000000000000 ) ) ;
#662 = VECTOR ( 'NONE', #294, 1000.000000000000000 ) ;
#663 = VECTOR ( 'NONE', #149, 1000.000000000000000 ) ;
#664 = ADVANCED_FACE ( 'NONE', ( #332 ), #453, .T. ) ;
#665 = EDGE_LOOP ( 'NONE', ( #305, #89, #269, #127 ) ) ;
#666 = PRODUCT_DEFINITION_SHAPE ( 'NONE', 'NONE',  #398 ) ;
#667 = DIRECTION ( 'NONE',  ( 0.0000000000000000000, -0.0000000000000000000, -1.000000000000000000 ) ) ;
#668 = LINE ( 'NONE', #104, #598 ) ;
#669 = VECTOR ( 'NONE', #354, 1000.000000000000000 ) ;
#670 = ORIENTED_EDGE ( 'NONE', *, *, #421, .T. ) ;
#671 = LINE ( 'NONE', #652, #178 ) ;
#672 = CARTESIAN_POINT ( 'NONE',  ( -45.00000000000000000, -62.00000000000000000, 0.0000000000000000000 ) ) ;
#673 = ADVANCED_BREP_SHAPE_REPRESENTATION ( '\X2\4e0a7bb14f536321677f\X0\', ( #551, #244 ), #633 ) ;
#674 = ORIENTED_EDGE ( 'NONE', *, *, #65, .F. ) ;
#675 = CARTESIAN_POINT ( 'NONE',  ( 45.99999999999994316, 73.50000000000000000, 2.999999999999999112 ) ) ;
#676 = DIRECTION ( 'NONE',  ( 0.0000000000000000000, 0.0000000000000000000, -1.000000000000000000 ) ) ;
#677 = VERTEX_POINT ( 'NONE', #347 ) ;
#678 = DIRECTION ( 'NONE',  ( 0.0000000000000000000, 0.0000000000000000000, -1.000000000000000000 ) ) ;
#679 = DIRECTION ( 'NONE',  ( 0.0000000000000000000, 0.0000000000000000000, 1.000000000000000000 ) ) ;
#680 = EDGE_CURVE ( 'NONE', #94, #221, #686, .T. ) ;
#681 = ORIENTED_EDGE ( 'NONE', *, *, #39, .T. ) ;
#682 = DIRECTION ( 'NONE',  ( -1.000000000000000000, 0.0000000000000000000, 0.0000000000000000000 ) ) ;
#683 = DIRECTION ( 'NONE',  ( 0.0000000000000000000, 0.0000000000000000000, -1.000000000000000000 ) ) ;
#684 = VECTOR ( 'NONE', #47, 1000.000000000000000 ) ;
#685 = EDGE_LOOP ( 'NONE', ( #584, #518, #731, #288 ) ) ;
#686 = LINE ( 'NONE', #502, #688 ) ;
#687 = PLANE ( 'NONE',  #645 ) ;
#688 = VECTOR ( 'NONE', #235, 1000.000000000000000 ) ;
#689 = EDGE_CURVE ( 'NONE', #394, #677, #423, .T. ) ;
#690 = DIRECTION ( 'NONE',  ( 0.0000000000000000000, 0.0000000000000000000, 1.000000000000000000 ) ) ;
#691 = DIRECTION ( 'NONE',  ( 0.0000000000000000000, 0.0000000000000000000, -1.000000000000000000 ) ) ;
#692 = LINE ( 'NONE', #179, #570 ) ;
#693 = DIRECTION ( 'NONE',  ( 0.0000000000000000000, 0.0000000000000000000, 1.000000000000000000 ) ) ;
#694 = EDGE_CURVE ( 'NONE', #375, #497, #569, .T. ) ;
#695 = DIRECTION ( 'NONE',  ( -0.0000000000000000000, -0.0000000000000000000, 1.000000000000000000 ) ) ;
#696 = VECTOR ( 'NONE', #278, 1000.000000000000000 ) ;
#697 = VECTOR ( 'NONE', #133, 1000.000000000000000 ) ;
#698 = CARTESIAN_POINT ( 'NONE',  ( -21.00000000000001066, 62.00000000000000000, -27.95084971874737079 ) ) ;
#699 = CIRCLE ( 'NONE', #225, 1.000000000000000888 ) ;
#700 = CARTESIAN_POINT ( 'NONE',  ( -46.00000000000000000, -73.50000000000000000, 0.0000000000000000000 ) ) ;
#701 = EDGE_CURVE ( 'NONE', #169, #714, #274, .T. ) ;
#702 = ORIENTED_EDGE ( 'NONE', *, *, #321, .F. ) ;
#703 = DIRECTION ( 'NONE',  ( 0.0000000000000000000, 0.0000000000000000000, 1.000000000000000000 ) ) ;
#704 = DIRECTION ( 'NONE',  ( 1.000000000000000000, -0.0000000000000000000, -0.0000000000000000000 ) ) ;
#705 = ORIENTED_EDGE ( 'NONE', *, *, #370, .F. ) ;
#706 = APPLICATION_PROTOCOL_DEFINITION ( 'draft international standard', 'automotive_design', 1998, #447 ) ;
#707 = AXIS2_PLACEMENT_3D ( 'NONE', #618, #683, #171 ) ;
#708 = CARTESIAN_POINT ( 'NONE',  ( 44.99999999999994316, 62.00000000000000000, 0.0000000000000000000 ) ) ;
#709 = DIRECTION ( 'NONE',  ( 0.0000000000000000000, -0.0000000000000000000, -1.000000000000000000 ) ) ;
#710 = CIRCLE ( 'NONE', #67, 1.000000000000000888 ) ;
#711 = EDGE_LOOP ( 'NONE', ( #151, #440, #41, #230 ) ) ;
#712 = DIRECTION ( 'NONE',  ( -1.000000000000000000, 0.0000000000000000000, 0.0000000000000000000 ) ) ;
#713 = AXIS2_PLACEMENT_3D ( 'NONE', #142, #484, #624 ) ;
#714 = VERTEX_POINT ( 'NONE', #617 ) ;
#715 = EDGE_LOOP ( 'NONE', ( #455, #312, #313, #34, #202, #674, #31, #555, #642, #32, #129, #254, #476, #387, #589, #481, #310, #280, #702, #101 ) ) ;
#716 = FILL_AREA_STYLE_COLOUR ( '', #451 ) ;
#717 = CARTESIAN_POINT ( 'NONE',  ( -21.00000000000000355, 74.50000000000000000, 3.000000000000000000 ) ) ;
#718 = ORIENTED_EDGE ( 'NONE', *, *, #356, .T. ) ;
#719 =( NAMED_UNIT ( * ) SI_UNIT ( $, .STERADIAN. ) SOLID_ANGLE_UNIT ( ) );
#720 = EDGE_CURVE ( 'NONE', #538, #205, #563, .T. ) ;
#721 = DIRECTION ( 'NONE',  ( 1.000000000000000000, 0.0000000000000000000, 0.0000000000000000000 ) ) ;
#722 = EDGE_CURVE ( 'NONE', #536, #359, #410, .T. ) ;
#723 = ORIENTED_EDGE ( 'NONE', *, *, #243, .T. ) ;
#724 = CARTESIAN_POINT ( 'NONE',  ( 44.99999999999994316, 62.00000000000000000, 3.000000000000000000 ) ) ;
#725 = LINE ( 'NONE', #386, #684 ) ;
#726 = AXIS2_PLACEMENT_3D ( 'NONE', #466, #691, #177 ) ;
#727 = EDGE_CURVE ( 'NONE', #375, #536, #643, .T. ) ;
#728 = VERTEX_POINT ( 'NONE', #477 ) ;
#729 = PRESENTATION_STYLE_ASSIGNMENT (( #318 ) ) ;
#730 = CARTESIAN_POINT ( 'NONE',  ( -21.00000000000001066, 62.00000000000000000, 0.0000000000000000000 ) ) ;
#731 = ORIENTED_EDGE ( 'NONE', *, *, #92, .F. ) ;
ENDSEC;
END-ISO-10303-21;
