ISO-10303-21;
HEADER;
FILE_DESCRIPTION (( 'STEP AP214' ),
    '1' );
FILE_NAME ('大腿关节限位块.step',
    '2026-09-25T10:02:32',
    ( '' ),
    ( '' ),
    'SwSTEP 2.0',
    'SolidWorks 2024',
    '' );
FILE_SCHEMA (( 'AUTOMOTIVE_DESIGN' ));
ENDSEC;

DATA;
#1 = EDGE_CURVE ( 'NONE', #158, #183, #264, .T. ) ;
#2 = ORIENTED_EDGE ( 'NONE', *, *, #378, .F. ) ;
#3 = DIRECTION ( 'NONE',  ( -0.0000000000000000000, -0.0000000000000000000, -1.000000000000000000 ) ) ;
#4 =( NAMED_UNIT ( * ) SI_UNIT ( $, .STERADIAN. ) SOLID_ANGLE_UNIT ( ) );
#5 = AXIS2_PLACEMENT_3D ( 'NONE', #301, #233, #236 ) ;
#6 = AXIS2_PLACEMENT_3D ( 'NONE', #221, #192, #317 ) ;
#7 = ORIENTED_EDGE ( 'NONE', *, *, #431, .F. ) ;
#8 = ADVANCED_FACE ( 'NONE', ( #426 ), #171, .F. ) ;
#9 = ORIENTED_EDGE ( 'NONE', *, *, #160, .T. ) ;
#10 = SURFACE_SIDE_STYLE ('',( #415 ) ) ;
#11 = DIRECTION ( 'NONE',  ( 1.000000000000000000, 0.0000000000000000000, 0.0000000000000000000 ) ) ;
#12 = DIRECTION ( 'NONE',  ( 1.000000000000000000, 0.0000000000000000000, 0.0000000000000000000 ) ) ;
#13 = ORIENTED_EDGE ( 'NONE', *, *, #424, .F. ) ;
#14 = CARTESIAN_POINT ( 'NONE',  ( 3.076063216169295789, -18.29986872835980094, 4.000000000000000000 ) ) ;
#15 = AXIS2_PLACEMENT_3D ( 'NONE', #146, #239, #37 ) ;
#16 = CARTESIAN_POINT ( 'NONE',  ( 0.01780042035564335934, -27.49999423900003492, 0.0000000000000000000 ) ) ;
#17 = EDGE_CURVE ( 'NONE', #374, #259, #51, .T. ) ;
#18 = ORIENTED_EDGE ( 'NONE', *, *, #329, .T. ) ;
#19 = VERTEX_POINT ( 'NONE', #333 ) ;
#20 = DIRECTION ( 'NONE',  ( 1.000000000000000000, 0.0000000000000000000, 0.0000000000000000000 ) ) ;
#21 = CIRCLE ( 'NONE', #15, 1.600000000000004086 ) ;
#22 = DIRECTION ( 'NONE',  ( -1.000000000000000000, 0.0000000000000000000, 0.0000000000000000000 ) ) ;
#23 = VECTOR ( 'NONE', #217, 1000.000000000000000 ) ;
#24 = PRODUCT_DEFINITION_FORMATION_WITH_SPECIFIED_SOURCE ( '浠', '', #210, .NOT_KNOWN. ) ;
#25 = CARTESIAN_POINT ( 'NONE',  ( 8.969953000073445537, -25.99596013184497778, 1.666666666666673402 ) ) ;
#26 = APPLICATION_CONTEXT ( 'automotive_design' ) ;
#27 = CARTESIAN_POINT ( 'NONE',  ( 0.01780042035564335934, -27.49999423900003492, -4.000000000000000000 ) ) ;
#28 = DIRECTION ( 'NONE',  ( 1.000000000000000000, 0.0000000000000000000, 0.0000000000000000000 ) ) ;
#29 = FACE_OUTER_BOUND ( 'NONE', #288, .T. ) ;
#30 = CIRCLE ( 'NONE', #64, 3.000000000000049294 ) ;
#31 = EDGE_CURVE ( 'NONE', #73, #183, #30, .T. ) ;
#32 = DIRECTION ( 'NONE',  ( 1.000000000000000000, 0.0000000000000000000, 0.0000000000000000000 ) ) ;
#33 = CYLINDRICAL_SURFACE ( 'NONE', #269, 3.000000000000049294 ) ;
#34 = CIRCLE ( 'NONE', #386, 12.70075153404532031 ) ;
#35 = ORIENTED_EDGE ( 'NONE', *, *, #85, .F. ) ;
#36 = DIRECTION ( 'NONE',  ( -0.0000000000000000000, -0.0000000000000000000, -1.000000000000000000 ) ) ;
#37 = DIRECTION ( 'NONE',  ( 1.000000000000000000, 0.0000000000000000000, 0.0000000000000000000 ) ) ;
#38 = DIRECTION ( 'NONE',  ( -0.0000000000000000000, 0.0000000000000000000, 1.000000000000000000 ) ) ;
#39 = VERTEX_POINT ( 'NONE', #203 ) ;
#40 = DIRECTION ( 'NONE',  ( 1.000000000000000000, 0.0000000000000000000, 0.0000000000000000000 ) ) ;
#41 = ADVANCED_FACE ( 'NONE', ( #169 ), #137, .T. ) ;
#42 = ORIENTED_EDGE ( 'NONE', *, *, #1, .F. ) ;
#43 = DIRECTION ( 'NONE',  ( 1.000000000000000000, 0.0000000000000000000, 0.0000000000000000000 ) ) ;
#44 = CARTESIAN_POINT ( 'NONE',  ( 10.56995300007345051, -25.99596013184497778, 1.666666666666673402 ) ) ;
#45 = FACE_OUTER_BOUND ( 'NONE', #387, .T. ) ;
#46 = ORIENTED_EDGE ( 'NONE', *, *, #424, .T. ) ;
#47 = CARTESIAN_POINT ( 'NONE',  ( 0.0000000000000000000, 0.0000000000000000000, 0.0000000000000000000 ) ) ;
#48 = CYLINDRICAL_SURFACE ( 'NONE', #411, 12.70075153404532209 ) ;
#49 = CARTESIAN_POINT ( 'NONE',  ( 3.076063216169295789, -18.29986872835980094, 4.000000000000000000 ) ) ;
#50 = DIRECTION ( 'NONE',  ( -0.0000000000000000000, -0.0000000000000000000, -1.000000000000000000 ) ) ;
#51 = CIRCLE ( 'NONE', #226, 1.600000000000004086 ) ;
#52 = AXIS2_PLACEMENT_3D ( 'NONE', #420, #132, #370 ) ;
#53 =( LENGTH_UNIT ( ) NAMED_UNIT ( * ) SI_UNIT ( .MILLI., .METRE. ) );
#54 = CIRCLE ( 'NONE', #91, 3.000000000000015543 ) ;
#55 = ORIENTED_EDGE ( 'NONE', *, *, #128, .F. ) ;
#56 = EDGE_LOOP ( 'NONE', ( #116, #223, #313, #342 ) ) ;
#57 = ORIENTED_EDGE ( 'NONE', *, *, #400, .T. ) ;
#58 = DIRECTION ( 'NONE',  ( 0.0000000000000000000, 0.0000000000000000000, 1.000000000000000000 ) ) ;
#59 = CIRCLE ( 'NONE', #109, 3.000000000000049294 ) ;
#60 = CARTESIAN_POINT ( 'NONE',  ( 10.46995300007344554, -25.99596013184497778, 1.500000000000000222 ) ) ;
#61 = DIRECTION ( 'NONE',  ( -0.0000000000000000000, -0.0000000000000000000, -1.000000000000000000 ) ) ;
#62 = DIRECTION ( 'NONE',  ( 1.000000000000000000, 0.0000000000000000000, 0.0000000000000000000 ) ) ;
#63 = CARTESIAN_POINT ( 'NONE',  ( 8.969953000073445537, -25.99596013184497778, 4.000000000000000000 ) ) ;
#64 = AXIS2_PLACEMENT_3D ( 'NONE', #297, #360, #28 ) ;
#65 = CIRCLE ( 'NONE', #140, 3.000000000000000000 ) ;
#66 = ADVANCED_FACE ( 'NONE', ( #97 ), #231, .F. ) ;
#67 = FACE_OUTER_BOUND ( 'NONE', #291, .T. ) ;
#68 = CARTESIAN_POINT ( 'NONE',  ( -0.9512860540878439464, -30.34518098603552261, 4.000000000000000000 ) ) ;
#69 = CIRCLE ( 'NONE', #149, 1.600000000000004086 ) ;
#70 = DIRECTION ( 'NONE',  ( -0.0000000000000000000, 0.0000000000000000000, 1.000000000000000000 ) ) ;
#71 = ORIENTED_EDGE ( 'NONE', *, *, #378, .T. ) ;
#72 = DIRECTION ( 'NONE',  ( -0.0000000000000000000, 0.0000000000000000000, 1.000000000000000000 ) ) ;
#73 = VERTEX_POINT ( 'NONE', #262 ) ;
#74 = CARTESIAN_POINT ( 'NONE',  ( 7.469953000073446425, -25.99596013184497778, 1.500000000000000222 ) ) ;
#75 = EDGE_CURVE ( 'NONE', #340, #227, #294, .T. ) ;
#76 = CARTESIAN_POINT ( 'NONE',  ( 0.0000000000000000000, 0.0000000000000000000, 4.000000000000000000 ) ) ;
#77 = ORIENTED_EDGE ( 'NONE', *, *, #257, .F. ) ;
#78 = DIRECTION ( 'NONE',  ( 1.000000000000000000, 0.0000000000000000000, 0.0000000000000000000 ) ) ;
#79 = VECTOR ( 'NONE', #108, 1000.000000000000000 ) ;
#80 = AXIS2_PLACEMENT_3D ( 'NONE', #151, #184, #156 ) ;
#81 = ORIENTED_EDGE ( 'NONE', *, *, #293, .T. ) ;
#82 = APPLICATION_PROTOCOL_DEFINITION ( 'draft international standard', 'automotive_design', 1998, #204 ) ;
#83 = FACE_OUTER_BOUND ( 'NONE', #228, .T. ) ;
#84 = PLANE ( 'NONE',  #429 ) ;
#85 = EDGE_CURVE ( 'NONE', #256, #148, #396, .T. ) ;
#86 = PRESENTATION_STYLE_ASSIGNMENT (( #88 ) ) ;
#87 = ORIENTED_EDGE ( 'NONE', *, *, #326, .F. ) ;
#88 = SURFACE_STYLE_USAGE ( .BOTH. , #10 ) ;
#89 = ORIENTED_EDGE ( 'NONE', *, *, #337, .T. ) ;
#90 = FACE_BOUND ( 'NONE', #382, .T. ) ;
#91 = AXIS2_PLACEMENT_3D ( 'NONE', #224, #251, #349 ) ;
#92 = DIRECTION ( 'NONE',  ( -0.0000000000000000000, 0.0000000000000000000, 1.000000000000000000 ) ) ;
#93 = ADVANCED_FACE ( 'NONE', ( #199 ), #129, .F. ) ;
#94 = ORIENTED_EDGE ( 'NONE', *, *, #174, .F. ) ;
#95 = DIRECTION ( 'NONE',  ( 0.0000000000000000000, 0.0000000000000000000, 1.000000000000000000 ) ) ;
#96 = VECTOR ( 'NONE', #271, 1000.000000000000000 ) ;
#97 = FACE_OUTER_BOUND ( 'NONE', #322, .T. ) ;
#98 = EDGE_CURVE ( 'NONE', #39, #114, #201, .T. ) ;
#99 = CARTESIAN_POINT ( 'NONE',  ( -0.3115819875367622505, -24.51622442783597933, 4.000000000000000000 ) ) ;
#100 = DIRECTION ( 'NONE',  ( 1.000000000000000000, 0.0000000000000000000, 0.0000000000000000000 ) ) ;
#101 = CARTESIAN_POINT ( 'NONE',  ( 0.0000000000000000000, -27.50000000000000000, 4.000000000000000000 ) ) ;
#102 = DIRECTION ( 'NONE',  ( -0.0000000000000000000, -0.0000000000000000000, -1.000000000000000000 ) ) ;
#103 = CIRCLE ( 'NONE', #172, 1.600000000000000533 ) ;
#104 = LINE ( 'NONE', #237, #133 ) ;
#105 = CARTESIAN_POINT ( 'NONE',  ( 7.369953000073441451, -25.99596013184497778, 1.666666666666673402 ) ) ;
#106 = DIRECTION ( 'NONE',  ( 1.000000000000000000, 0.0000000000000000000, 0.0000000000000000000 ) ) ;
#107 = ORIENTED_EDGE ( 'NONE', *, *, #174, .T. ) ;
#108 = DIRECTION ( 'NONE',  ( -0.0000000000000000000, -0.0000000000000000000, -1.000000000000000000 ) ) ;
#109 = AXIS2_PLACEMENT_3D ( 'NONE', #134, #266, #390 ) ;
#110 = ADVANCED_FACE ( 'NONE', ( #167 ), #295, .T. ) ;
#111 = DIRECTION ( 'NONE',  ( 1.000000000000000000, 0.0000000000000000000, 0.0000000000000000000 ) ) ;
#112 = FACE_OUTER_BOUND ( 'NONE', #225, .T. ) ;
#113 = CARTESIAN_POINT ( 'NONE',  ( 0.01780042035564335934, -27.49999423900003492, -4.000000000000000000 ) ) ;
#114 = VERTEX_POINT ( 'NONE', #395 ) ;
#115 = DIRECTION ( 'NONE',  ( 0.0000000000000000000, 0.0000000000000000000, 1.000000000000000000 ) ) ;
#116 = ORIENTED_EDGE ( 'NONE', *, *, #254, .F. ) ;
#117 = FACE_BOUND ( 'NONE', #371, .T. ) ;
#118 = LINE ( 'NONE', #74, #165 ) ;
#119 = ADVANCED_BREP_SHAPE_REPRESENTATION ( '\X2\5927817f5173828296504f4d5757\X0\', ( #391, #230 ), #375 ) ;
#120 = VERTEX_POINT ( 'NONE', #335 ) ;
#121 = ADVANCED_FACE ( 'NONE', ( #29 ), #127, .T. ) ;
#122 = ORIENTED_EDGE ( 'NONE', *, *, #234, .F. ) ;
#123 = EDGE_CURVE ( 'NONE', #195, #213, #332, .T. ) ;
#124 = CIRCLE ( 'NONE', #219, 1.600000000000004086 ) ;
#125 = PRODUCT_RELATED_PRODUCT_CATEGORY ( 'part', '', ( #210 ) ) ;
#126 = ORIENTED_EDGE ( 'NONE', *, *, #270, .T. ) ;
#127 = CYLINDRICAL_SURFACE ( 'NONE', #373, 1.600000000000000533 ) ;
#128 = EDGE_CURVE ( 'NONE', #213, #399, #65, .T. ) ;
#129 = CYLINDRICAL_SURFACE ( 'NONE', #163, 1.600000000000003419 ) ;
#130 = UNCERTAINTY_MEASURE_WITH_UNIT (LENGTH_MEASURE( 1.000000000000000082E-05 ), #320, 'distance_accuracy_value', 'NONE');
#131 = DIRECTION ( 'NONE',  ( -0.0000000000000000000, -0.0000000000000000000, -1.000000000000000000 ) ) ;
#132 = DIRECTION ( 'NONE',  ( 0.0000000000000000000, 0.0000000000000000000, 1.000000000000000000 ) ) ;
#133 = VECTOR ( 'NONE', #102, 1000.000000000000000 ) ;
#134 = CARTESIAN_POINT ( 'NONE',  ( 8.991024106064624988, -25.98867994962738948, 0.0000000000000000000 ) ) ;
#135 = AXIS2_PLACEMENT_3D ( 'NONE', #76, #179, #11 ) ;
#136 = DIRECTION ( 'NONE',  ( -0.0000000000000000000, -0.0000000000000000000, -1.000000000000000000 ) ) ;
#137 = CYLINDRICAL_SURFACE ( 'NONE', #207, 1.600000000000000533 ) ;
#138 = CARTESIAN_POINT ( 'NONE',  ( 10.82025172903895971, -28.36647857511020376, 4.000000000000000000 ) ) ;
#139 = EDGE_CURVE ( 'NONE', #114, #177, #59, .T. ) ;
#140 = AXIS2_PLACEMENT_3D ( 'NONE', #336, #136, #330 ) ;
#141 = CARTESIAN_POINT ( 'NONE',  ( 10.56995300007345051, -25.99596013184497778, 4.000000000000000000 ) ) ;
#142 = MECHANICAL_DESIGN_GEOMETRIC_PRESENTATION_REPRESENTATION (  '', ( #176 ), #352 ) ;
#143 = ORIENTED_EDGE ( 'NONE', *, *, #409, .T. ) ;
#144 = DIRECTION ( 'NONE',  ( -0.0000000000000000000, -0.0000000000000000000, -1.000000000000000000 ) ) ;
#145 = VERTEX_POINT ( 'NONE', #392 ) ;
#146 = CARTESIAN_POINT ( 'NONE',  ( 8.969953000073445537, -25.99596013184497778, 1.666666666666673402 ) ) ;
#147 = CARTESIAN_POINT ( 'NONE',  ( 1.617800420355643976, -27.49999423900003492, -4.000000000000000000 ) ) ;
#148 = VERTEX_POINT ( 'NONE', #358 ) ;
#149 = AXIS2_PLACEMENT_3D ( 'NONE', #232, #198, #20 ) ;
#150 = EDGE_LOOP ( 'NONE', ( #7, #346 ) ) ;
#151 = CARTESIAN_POINT ( 'NONE',  ( 0.0000000000000000000, -27.50000000000000000, 0.0000000000000000000 ) ) ;
#152 = CARTESIAN_POINT ( 'NONE',  ( 8.991024106064624988, -25.98867994962738948, 4.000000000000000000 ) ) ;
#153 = ORIENTED_EDGE ( 'NONE', *, *, #254, .T. ) ;
#154 = ORIENTED_EDGE ( 'NONE', *, *, #75, .T. ) ;
#155 = DIRECTION ( 'NONE',  ( -0.0000000000000000000, -0.0000000000000000000, -1.000000000000000000 ) ) ;
#156 = DIRECTION ( 'NONE',  ( 1.000000000000000000, 0.0000000000000000000, 0.0000000000000000000 ) ) ;
#157 = VECTOR ( 'NONE', #417, 1000.000000000000000 ) ;
#158 = VERTEX_POINT ( 'NONE', #99 ) ;
#159 = DIRECTION ( 'NONE',  ( 1.000000000000000000, 0.0000000000000000000, -0.0000000000000000000 ) ) ;
#160 = EDGE_CURVE ( 'NONE', #259, #374, #69, .T. ) ;
#161 = DIRECTION ( 'NONE',  ( -1.000000000000000000, 0.0000000000000000000, 0.0000000000000000000 ) ) ;
#162 = ORIENTED_EDGE ( 'NONE', *, *, #427, .T. ) ;
#163 = AXIS2_PLACEMENT_3D ( 'NONE', #63, #173, #22 ) ;
#164 = CIRCLE ( 'NONE', #303, 3.000000000000000000 ) ;
#165 = VECTOR ( 'NONE', #281, 1000.000000000000000 ) ;
#166 = DIRECTION ( 'NONE',  ( 1.000000000000000000, 0.0000000000000000000, 0.0000000000000000000 ) ) ;
#167 = FACE_OUTER_BOUND ( 'NONE', #292, .T. ) ;
#168 = PRODUCT_DEFINITION ( '鏈', '', #24, #362 ) ;
#169 = FACE_OUTER_BOUND ( 'NONE', #327, .T. ) ;
#170 = CIRCLE ( 'NONE', #311, 70.00000000000000000 ) ;
#171 = CYLINDRICAL_SURFACE ( 'NONE', #402, 70.00000000000000000 ) ;
#172 = AXIS2_PLACEMENT_3D ( 'NONE', #343, #115, #78 ) ;
#173 = DIRECTION ( 'NONE',  ( -0.0000000000000000000, -0.0000000000000000000, -1.000000000000000000 ) ) ;
#174 = EDGE_CURVE ( 'NONE', #399, #213, #164, .T. ) ;
#175 = ORIENTED_EDGE ( 'NONE', *, *, #357, .T. ) ;
#176 = STYLED_ITEM ( 'NONE', ( #86 ), #391 ) ;
#177 = VERTEX_POINT ( 'NONE', #279 ) ;
#178 = ADVANCED_FACE ( 'NONE', ( #193, #117, #253 ), #84, .F. ) ;
#179 = DIRECTION ( 'NONE',  ( -0.0000000000000000000, 0.0000000000000000000, 1.000000000000000000 ) ) ;
#180 = CARTESIAN_POINT ( 'NONE',  ( 1.617800420355643976, -27.49999423900003492, 0.0000000000000000000 ) ) ;
#181 = EDGE_LOOP ( 'NONE', ( #350, #220, #191, #162 ) ) ;
#182 = FACE_OUTER_BOUND ( 'NONE', #150, .T. ) ;
#183 = VERTEX_POINT ( 'NONE', #319 ) ;
#184 = DIRECTION ( 'NONE',  ( -0.0000000000000000000, 0.0000000000000000000, 1.000000000000000000 ) ) ;
#185 = AXIS2_PLACEMENT_3D ( 'NONE', #325, #252, #377 ) ;
#186 = LINE ( 'NONE', #249, #385 ) ;
#187 = ORIENTED_EDGE ( 'NONE', *, *, #368, .F. ) ;
#188 = CARTESIAN_POINT ( 'NONE',  ( 0.01780042035564335934, -27.49999423900003492, -4.000000000000000000 ) ) ;
#189 = EDGE_CURVE ( 'NONE', #195, #282, #21, .T. ) ;
#190 =( NAMED_UNIT ( * ) PLANE_ANGLE_UNIT ( ) SI_UNIT ( $, .RADIAN. ) );
#191 = ORIENTED_EDGE ( 'NONE', *, *, #1, .T. ) ;
#192 = DIRECTION ( 'NONE',  ( 0.0000000000000000000, 0.0000000000000000000, 1.000000000000000000 ) ) ;
#193 = FACE_BOUND ( 'NONE', #246, .T. ) ;
#194 = CARTESIAN_POINT ( 'NONE',  ( 8.309947977182730483, -23.06701342062932980, 4.000000000000000000 ) ) ;
#195 = VERTEX_POINT ( 'NONE', #44 ) ;
#196 = PRESENTATION_LAYER_ASSIGNMENT (  '', '', ( #176 ) ) ;
#197 = ORIENTED_EDGE ( 'NONE', *, *, #189, .F. ) ;
#198 = DIRECTION ( 'NONE',  ( -0.0000000000000000000, 0.0000000000000000000, 1.000000000000000000 ) ) ;
#199 = FACE_OUTER_BOUND ( 'NONE', #56, .T. ) ;
#200 = CARTESIAN_POINT ( 'NONE',  ( -0.3115819875367622505, -24.51622442783597933, 0.0000000000000000000 ) ) ;
#201 = CIRCLE ( 'NONE', #214, 12.70075153404532031 ) ;
#202 = CARTESIAN_POINT ( 'NONE',  ( 0.0000000000000000000, -27.50000000000000000, 4.000000000000000000 ) ) ;
#203 = CARTESIAN_POINT ( 'NONE',  ( -0.9512860540878439464, -30.34518098603552261, 0.0000000000000000000 ) ) ;
#204 = APPLICATION_CONTEXT ( 'automotive_design' ) ;
#205 = CARTESIAN_POINT ( 'NONE',  ( 8.969953000073445537, -25.99596013184497778, 0.0000000000000000000 ) ) ;
#206 = EDGE_CURVE ( 'NONE', #145, #120, #186, .T. ) ;
#207 = AXIS2_PLACEMENT_3D ( 'NONE', #27, #359, #32 ) ;
#208 = CONICAL_SURFACE ( 'NONE', #6, 1.499999999999999556, 0.5404195002705843853 ) ;
#209 = DIRECTION ( 'NONE',  ( -1.000000000000000000, 0.0000000000000000000, 0.0000000000000000000 ) ) ;
#210 = PRODUCT ( '\X2\5927817f5173828296504f4d5757\X0\', '\X2\5927817f5173828296504f4d5757\X0\', '', ( #418 ) ) ;
#211 = FACE_OUTER_BOUND ( 'NONE', #404, .T. ) ;
#212 = CYLINDRICAL_SURFACE ( 'NONE', #361, 3.000000000000015543 ) ;
#213 = VERTEX_POINT ( 'NONE', #339 ) ;
#214 = AXIS2_PLACEMENT_3D ( 'NONE', #434, #229, #166 ) ;
#215 = DIRECTION ( 'NONE',  ( 0.0000000000000000000, 0.0000000000000000000, 1.000000000000000000 ) ) ;
#216 = ORIENTED_EDGE ( 'NONE', *, *, #206, .T. ) ;
#217 = DIRECTION ( 'NONE',  ( -0.0000000000000000000, -0.0000000000000000000, -1.000000000000000000 ) ) ;
#218 = ORIENTED_EDGE ( 'NONE', *, *, #139, .F. ) ;
#219 = AXIS2_PLACEMENT_3D ( 'NONE', #25, #131, #287 ) ;
#220 = ORIENTED_EDGE ( 'NONE', *, *, #270, .F. ) ;
#221 = CARTESIAN_POINT ( 'NONE',  ( 8.969953000073445537, -25.99596013184497778, 1.500000000000000222 ) ) ;
#222 = CARTESIAN_POINT ( 'NONE',  ( 0.0000000000000000000, 0.0000000000000000000, 0.0000000000000000000 ) ) ;
#223 = ORIENTED_EDGE ( 'NONE', *, *, #357, .F. ) ;
#224 = CARTESIAN_POINT ( 'NONE',  ( 0.0000000000000000000, -27.50000000000000000, 0.0000000000000000000 ) ) ;
#225 = EDGE_LOOP ( 'NONE', ( #410, #376, #372, #240 ) ) ;
#226 = AXIS2_PLACEMENT_3D ( 'NONE', #205, #393, #100 ) ;
#227 = VERTEX_POINT ( 'NONE', #180 ) ;
#228 = EDGE_LOOP ( 'NONE', ( #384, #175, #405, #94 ) ) ;
#229 = DIRECTION ( 'NONE',  ( -0.0000000000000000000, 0.0000000000000000000, 1.000000000000000000 ) ) ;
#230 = AXIS2_PLACEMENT_3D ( 'NONE', #47, #314, #12 ) ;
#231 = CYLINDRICAL_SURFACE ( 'NONE', #5, 1.600000000000003419 ) ;
#232 = CARTESIAN_POINT ( 'NONE',  ( 8.969953000073445537, -25.99596013184497778, 0.0000000000000000000 ) ) ;
#233 = DIRECTION ( 'NONE',  ( -0.0000000000000000000, -0.0000000000000000000, -1.000000000000000000 ) ) ;
#234 = EDGE_CURVE ( 'NONE', #158, #256, #265, .T. ) ;
#235 = CLOSED_SHELL ( 'NONE', ( #318, #41, #66, #110, #277, #315, #248, #93, #8, #367, #178, #121, #238, #334 ) ) ;
#236 = DIRECTION ( 'NONE',  ( -1.000000000000000000, 0.0000000000000000000, 0.0000000000000000000 ) ) ;
#237 = CARTESIAN_POINT ( 'NONE',  ( 7.369953000073442340, -25.99596013184497778, 4.000000000000000000 ) ) ;
#238 = ADVANCED_FACE ( 'NONE', ( #182 ), #309, .F. ) ;
#239 = DIRECTION ( 'NONE',  ( -0.0000000000000000000, -0.0000000000000000000, -1.000000000000000000 ) ) ;
#240 = ORIENTED_EDGE ( 'NONE', *, *, #326, .T. ) ;
#241 = AXIS2_PLACEMENT_3D ( 'NONE', #113, #245, #159 ) ;
#242 = LINE ( 'NONE', #347, #351 ) ;
#243 = ORIENTED_EDGE ( 'NONE', *, *, #298, .T. ) ;
#244 = CARTESIAN_POINT ( 'NONE',  ( 5.969953000073445537, -25.99596013184497778, 4.000000000000000000 ) ) ;
#245 = DIRECTION ( 'NONE',  ( 0.0000000000000000000, 0.0000000000000000000, 1.000000000000000000 ) ) ;
#246 = EDGE_LOOP ( 'NONE', ( #416, #71 ) ) ;
#247 = FILL_AREA_STYLE_COLOUR ( '', #304 ) ;
#248 = ADVANCED_FACE ( 'NONE', ( #112 ), #33, .T. ) ;
#249 = CARTESIAN_POINT ( 'NONE',  ( -1.582199579644357090, -27.49999423900003492, -4.000000000000000000 ) ) ;
#250 = ORIENTED_EDGE ( 'NONE', *, *, #85, .T. ) ;
#251 = DIRECTION ( 'NONE',  ( -0.0000000000000000000, 0.0000000000000000000, 1.000000000000000000 ) ) ;
#252 = DIRECTION ( 'NONE',  ( 0.0000000000000000000, 0.0000000000000000000, 1.000000000000000000 ) ) ;
#253 = FACE_OUTER_BOUND ( 'NONE', #316, .T. ) ;
#254 = EDGE_CURVE ( 'NONE', #195, #374, #312, .T. ) ;
#255 = FILL_AREA_STYLE ('',( #247 ) ) ;
#256 = VERTEX_POINT ( 'NONE', #398 ) ;
#257 = EDGE_CURVE ( 'NONE', #282, #259, #104, .T. ) ;
#258 =( NAMED_UNIT ( * ) PLANE_ANGLE_UNIT ( ) SI_UNIT ( $, .RADIAN. ) );
#259 = VERTEX_POINT ( 'NONE', #401 ) ;
#260 = ORIENTED_EDGE ( 'NONE', *, *, #206, .F. ) ;
#261 = ORIENTED_EDGE ( 'NONE', *, *, #431, .T. ) ;
#262 = CARTESIAN_POINT ( 'NONE',  ( 10.82025172903895971, -28.36647857511020376, 4.000000000000000000 ) ) ;
#263 = CARTESIAN_POINT ( 'NONE',  ( 0.01780042035564335934, -27.49999423900003492, -4.000000000000000000 ) ) ;
#264 = CIRCLE ( 'NONE', #321, 70.00000000000000000 ) ;
#265 = CIRCLE ( 'NONE', #397, 3.000000000000015543 ) ;
#266 = DIRECTION ( 'NONE',  ( -0.0000000000000000000, 0.0000000000000000000, 1.000000000000000000 ) ) ;
#267 = DIRECTION ( 'NONE',  ( -1.000000000000000000, 0.0000000000000000000, 0.0000000000000000000 ) ) ;
#268 = DIRECTION ( 'NONE',  ( -0.0000000000000000000, -0.0000000000000000000, -1.000000000000000000 ) ) ;
#269 = AXIS2_PLACEMENT_3D ( 'NONE', #152, #3, #302 ) ;
#270 = EDGE_CURVE ( 'NONE', #158, #348, #278, .T. ) ;
#271 = DIRECTION ( 'NONE',  ( -0.0000000000000000000, -0.0000000000000000000, -1.000000000000000000 ) ) ;
#272 = ORIENTED_EDGE ( 'NONE', *, *, #293, .F. ) ;
#273 = DIRECTION ( 'NONE',  ( -1.000000000000000000, 0.0000000000000000000, 0.0000000000000000000 ) ) ;
#274 = ORIENTED_EDGE ( 'NONE', *, *, #433, .T. ) ;
#275 = ORIENTED_EDGE ( 'NONE', *, *, #123, .F. ) ;
#276 = DIRECTION ( 'NONE',  ( 0.0000000000000000000, 0.0000000000000000000, 1.000000000000000000 ) ) ;
#277 = ADVANCED_FACE ( 'NONE', ( #67 ), #212, .T. ) ;
#278 = LINE ( 'NONE', #363, #79 ) ;
#279 = CARTESIAN_POINT ( 'NONE',  ( 8.309947977182730483, -23.06701342062932980, 0.0000000000000000000 ) ) ;
#280 = ORIENTED_EDGE ( 'NONE', *, *, #189, .T. ) ;
#281 = DIRECTION ( 'NONE',  ( -0.5144957554275266798, 6.300755800592199676E-17, 0.8574929257125440962 ) ) ;
#282 = VERTEX_POINT ( 'NONE', #105 ) ;
#283 = CARTESIAN_POINT ( 'NONE',  ( 10.56995300007345051, -25.99596013184497778, 0.0000000000000000000 ) ) ;
#284 = ORIENTED_EDGE ( 'NONE', *, *, #17, .T. ) ;
#285 = AXIS2_PLACEMENT_3D ( 'NONE', #202, #389, #428 ) ;
#286 = CARTESIAN_POINT ( 'NONE',  ( -7.581828363394512493, 45.10520558932417146, 0.0000000000000000000 ) ) ;
#287 = DIRECTION ( 'NONE',  ( 1.000000000000000000, 0.0000000000000000000, 0.0000000000000000000 ) ) ;
#288 = EDGE_LOOP ( 'NONE', ( #260, #18, #154, #2 ) ) ;
#289 = FACE_OUTER_BOUND ( 'NONE', #414, .T. ) ;
#290 = APPLICATION_PROTOCOL_DEFINITION ( 'draft international standard', 'automotive_design', 1998, #26 ) ;
#291 = EDGE_LOOP ( 'NONE', ( #353, #122, #126, #274 ) ) ;
#292 = EDGE_LOOP ( 'NONE', ( #35, #243, #46, #272 ) ) ;
#293 = EDGE_CURVE ( 'NONE', #148, #39, #364, .T. ) ;
#294 = LINE ( 'NONE', #423, #310 ) ;
#295 = CYLINDRICAL_SURFACE ( 'NONE', #323, 3.000000000000015543 ) ;
#296 = UNCERTAINTY_MEASURE_WITH_UNIT (LENGTH_MEASURE( 1.000000000000000082E-05 ), #53, 'distance_accuracy_value', 'NONE');
#297 = CARTESIAN_POINT ( 'NONE',  ( 8.991024106064624988, -25.98867994962738948, 4.000000000000000000 ) ) ;
#298 = EDGE_CURVE ( 'NONE', #256, #19, #242, .T. ) ;
#299 = CIRCLE ( 'NONE', #185, 1.600000000000000533 ) ;
#300 = DIRECTION ( 'NONE',  ( 0.5144957554275266798, 0.0000000000000000000, 0.8574929257125440962 ) ) ;
#301 = CARTESIAN_POINT ( 'NONE',  ( 8.969953000073445537, -25.99596013184497778, 4.000000000000000000 ) ) ;
#302 = DIRECTION ( 'NONE',  ( -1.000000000000000000, 0.0000000000000000000, 0.0000000000000000000 ) ) ;
#303 = AXIS2_PLACEMENT_3D ( 'NONE', #365, #155, #407 ) ;
#304 = COLOUR_RGB ( '',0.7921568627450980005, 0.8196078431372548767, 0.9333333333333333481 ) ;
#305 = CARTESIAN_POINT ( 'NONE',  ( 0.0000000000000000000, -27.50000000000000000, 4.000000000000000000 ) ) ;
#306 = ORIENTED_EDGE ( 'NONE', *, *, #234, .T. ) ;
#307 = DIRECTION ( 'NONE',  ( 1.000000000000000000, 0.0000000000000000000, 0.0000000000000000000 ) ) ;
#308 = LINE ( 'NONE', #194, #23 ) ;
#309 = PLANE ( 'NONE',  #241 ) ;
#310 = VECTOR ( 'NONE', #58, 1000.000000000000000 ) ;
#311 = AXIS2_PLACEMENT_3D ( 'NONE', #286, #38, #307 ) ;
#312 = LINE ( 'NONE', #141, #96 ) ;
#313 = ORIENTED_EDGE ( 'NONE', *, *, #257, .T. ) ;
#314 = DIRECTION ( 'NONE',  ( 0.0000000000000000000, 0.0000000000000000000, 1.000000000000000000 ) ) ;
#315 = ADVANCED_FACE ( 'NONE', ( #45 ), #48, .T. ) ;
#316 = EDGE_LOOP ( 'NONE', ( #419, #89, #218, #381, #13 ) ) ;
#317 = DIRECTION ( 'NONE',  ( 1.000000000000000000, 0.0000000000000000000, 0.0000000000000000000 ) ) ;
#318 = ADVANCED_FACE ( 'NONE', ( #289 ), #338, .F. ) ;
#319 = CARTESIAN_POINT ( 'NONE',  ( 8.309947977182730483, -23.06701342062932980, 4.000000000000000000 ) ) ;
#320 =( LENGTH_UNIT ( ) NAMED_UNIT ( * ) SI_UNIT ( .MILLI., .METRE. ) );
#321 = AXIS2_PLACEMENT_3D ( 'NONE', #421, #92, #62 ) ;
#322 = EDGE_LOOP ( 'NONE', ( #197, #153, #379, #77 ) ) ;
#323 = AXIS2_PLACEMENT_3D ( 'NONE', #101, #268, #209 ) ;
#324 = ORIENTED_EDGE ( 'NONE', *, *, #31, .T. ) ;
#325 = CARTESIAN_POINT ( 'NONE',  ( 0.01780042035564335934, -27.49999423900003492, -4.000000000000000000 ) ) ;
#326 = EDGE_CURVE ( 'NONE', #73, #114, #394, .T. ) ;
#327 = EDGE_LOOP ( 'NONE', ( #261, #216, #187, #328 ) ) ;
#328 = ORIENTED_EDGE ( 'NONE', *, *, #75, .F. ) ;
#329 = EDGE_CURVE ( 'NONE', #145, #340, #299, .T. ) ;
#330 = DIRECTION ( 'NONE',  ( -1.000000000000000000, 0.0000000000000000000, 0.0000000000000000000 ) ) ;
#331 = PLANE ( 'NONE',  #135 ) ;
#332 = LINE ( 'NONE', #60, #366 ) ;
#333 = CARTESIAN_POINT ( 'NONE',  ( -3.000000000000015543, -27.50000000000000000, 0.0000000000000000000 ) ) ;
#334 = ADVANCED_FACE ( 'NONE', ( #83 ), #208, .F. ) ;
#335 = CARTESIAN_POINT ( 'NONE',  ( -1.582199579644357090, -27.49999423900003492, 0.0000000000000000000 ) ) ;
#336 = CARTESIAN_POINT ( 'NONE',  ( 8.969953000073445537, -25.99596013184497778, 4.000000000000000000 ) ) ;
#337 = EDGE_CURVE ( 'NONE', #348, #177, #170, .T. ) ;
#338 = CONICAL_SURFACE ( 'NONE', #52, 1.499999999999999556, 0.5404195002705843853 ) ;
#339 = CARTESIAN_POINT ( 'NONE',  ( 11.96995300007344731, -25.99596013184497778, 4.000000000000000000 ) ) ;
#340 = VERTEX_POINT ( 'NONE', #147 ) ;
#341 = DIRECTION ( 'NONE',  ( 0.0000000000000000000, 0.0000000000000000000, 1.000000000000000000 ) ) ;
#342 = ORIENTED_EDGE ( 'NONE', *, *, #17, .F. ) ;
#343 = CARTESIAN_POINT ( 'NONE',  ( 0.01780042035564335934, -27.49999423900003492, 0.0000000000000000000 ) ) ;
#344 = CIRCLE ( 'NONE', #80, 3.000000000000015543 ) ;
#345 = ORIENTED_EDGE ( 'NONE', *, *, #400, .F. ) ;
#346 = ORIENTED_EDGE ( 'NONE', *, *, #329, .F. ) ;
#347 = CARTESIAN_POINT ( 'NONE',  ( -3.000000000000015543, -27.50000000000000000, 4.000000000000000000 ) ) ;
#348 = VERTEX_POINT ( 'NONE', #200 ) ;
#349 = DIRECTION ( 'NONE',  ( 1.000000000000000000, 0.0000000000000000000, 0.0000000000000000000 ) ) ;
#350 = ORIENTED_EDGE ( 'NONE', *, *, #337, .F. ) ;
#351 = VECTOR ( 'NONE', #50, 1000.000000000000000 ) ;
#352 =( GEOMETRIC_REPRESENTATION_CONTEXT ( 3 ) GLOBAL_UNCERTAINTY_ASSIGNED_CONTEXT ( ( #296 ) ) GLOBAL_UNIT_ASSIGNED_CONTEXT ( ( #53, #258, #4 ) ) REPRESENTATION_CONTEXT ( 'NONE', 'WORKASPACE' ) );
#353 = ORIENTED_EDGE ( 'NONE', *, *, #298, .F. ) ;
#354 = DIRECTION ( 'NONE',  ( 1.000000000000000000, 0.0000000000000000000, 0.0000000000000000000 ) ) ;
#355 = VECTOR ( 'NONE', #36, 1000.000000000000000 ) ;
#356 = CIRCLE ( 'NONE', #422, 1.600000000000000533 ) ;
#357 = EDGE_CURVE ( 'NONE', #282, #195, #124, .T. ) ;
#358 = CARTESIAN_POINT ( 'NONE',  ( -0.9512860540878439464, -30.34518098603552261, 4.000000000000000000 ) ) ;
#359 = DIRECTION ( 'NONE',  ( 0.0000000000000000000, 0.0000000000000000000, 1.000000000000000000 ) ) ;
#360 = DIRECTION ( 'NONE',  ( -0.0000000000000000000, 0.0000000000000000000, 1.000000000000000000 ) ) ;
#361 = AXIS2_PLACEMENT_3D ( 'NONE', #305, #144, #273 ) ;
#362 = PRODUCT_DEFINITION_CONTEXT ( 'detailed design', #26, 'design' ) ;
#363 = CARTESIAN_POINT ( 'NONE',  ( -0.3115819875367622505, -24.51622442783597933, 4.000000000000000000 ) ) ;
#364 = LINE ( 'NONE', #68, #355 ) ;
#365 = CARTESIAN_POINT ( 'NONE',  ( 8.969953000073445537, -25.99596013184497778, 4.000000000000000000 ) ) ;
#366 = VECTOR ( 'NONE', #300, 1000.000000000000000 ) ;
#367 = ADVANCED_FACE ( 'NONE', ( #90, #211 ), #331, .T. ) ;
#368 = EDGE_CURVE ( 'NONE', #227, #120, #103, .T. ) ;
#369 = CARTESIAN_POINT ( 'NONE',  ( 0.0000000000000000000, -27.50000000000000000, 4.000000000000000000 ) ) ;
#370 = DIRECTION ( 'NONE',  ( 1.000000000000000000, 0.0000000000000000000, 0.0000000000000000000 ) ) ;
#371 = EDGE_LOOP ( 'NONE', ( #9, #284 ) ) ;
#372 = ORIENTED_EDGE ( 'NONE', *, *, #31, .F. ) ;
#373 = AXIS2_PLACEMENT_3D ( 'NONE', #263, #95, #354 ) ;
#374 = VERTEX_POINT ( 'NONE', #283 ) ;
#375 =( GEOMETRIC_REPRESENTATION_CONTEXT ( 3 ) GLOBAL_UNCERTAINTY_ASSIGNED_CONTEXT ( ( #130 ) ) GLOBAL_UNIT_ASSIGNED_CONTEXT ( ( #320, #190, #412 ) ) REPRESENTATION_CONTEXT ( 'NONE', 'WORKASPACE' ) );
#376 = ORIENTED_EDGE ( 'NONE', *, *, #427, .F. ) ;
#377 = DIRECTION ( 'NONE',  ( 1.000000000000000000, 0.0000000000000000000, 0.0000000000000000000 ) ) ;
#378 = EDGE_CURVE ( 'NONE', #120, #227, #356, .T. ) ;
#379 = ORIENTED_EDGE ( 'NONE', *, *, #160, .F. ) ;
#380 = PRODUCT_DEFINITION_SHAPE ( 'NONE', 'NONE',  #168 ) ;
#381 = ORIENTED_EDGE ( 'NONE', *, *, #98, .F. ) ;
#382 = EDGE_LOOP ( 'NONE', ( #403, #107 ) ) ;
#383 = DIRECTION ( 'NONE',  ( -0.0000000000000000000, -0.0000000000000000000, -1.000000000000000000 ) ) ;
#384 = ORIENTED_EDGE ( 'NONE', *, *, #409, .F. ) ;
#385 = VECTOR ( 'NONE', #215, 1000.000000000000000 ) ;
#386 = AXIS2_PLACEMENT_3D ( 'NONE', #49, #406, #408 ) ;
#387 = EDGE_LOOP ( 'NONE', ( #388, #87, #345, #81 ) ) ;
#388 = ORIENTED_EDGE ( 'NONE', *, *, #98, .T. ) ;
#389 = DIRECTION ( 'NONE',  ( -0.0000000000000000000, 0.0000000000000000000, 1.000000000000000000 ) ) ;
#390 = DIRECTION ( 'NONE',  ( 1.000000000000000000, 0.0000000000000000000, 0.0000000000000000000 ) ) ;
#391 = MANIFOLD_SOLID_BREP ( '切除-旋转1', #235 ) ;
#392 = CARTESIAN_POINT ( 'NONE',  ( -1.582199579644357090, -27.49999423900003492, -4.000000000000000000 ) ) ;
#393 = DIRECTION ( 'NONE',  ( -0.0000000000000000000, 0.0000000000000000000, 1.000000000000000000 ) ) ;
#394 = LINE ( 'NONE', #138, #157 ) ;
#395 = CARTESIAN_POINT ( 'NONE',  ( 10.82025172903895971, -28.36647857511020376, 0.0000000000000000000 ) ) ;
#396 = CIRCLE ( 'NONE', #285, 3.000000000000015543 ) ;
#397 = AXIS2_PLACEMENT_3D ( 'NONE', #369, #72, #40 ) ;
#398 = CARTESIAN_POINT ( 'NONE',  ( -3.000000000000015543, -27.50000000000000000, 4.000000000000000000 ) ) ;
#399 = VERTEX_POINT ( 'NONE', #244 ) ;
#400 = EDGE_CURVE ( 'NONE', #148, #73, #34, .T. ) ;
#401 = CARTESIAN_POINT ( 'NONE',  ( 7.369953000073441451, -25.99596013184497778, 0.0000000000000000000 ) ) ;
#402 = AXIS2_PLACEMENT_3D ( 'NONE', #432, #61, #267 ) ;
#403 = ORIENTED_EDGE ( 'NONE', *, *, #128, .T. ) ;
#404 = EDGE_LOOP ( 'NONE', ( #306, #250, #57, #324, #42 ) ) ;
#405 = ORIENTED_EDGE ( 'NONE', *, *, #123, .T. ) ;
#406 = DIRECTION ( 'NONE',  ( -0.0000000000000000000, 0.0000000000000000000, 1.000000000000000000 ) ) ;
#407 = DIRECTION ( 'NONE',  ( -1.000000000000000000, 0.0000000000000000000, 0.0000000000000000000 ) ) ;
#408 = DIRECTION ( 'NONE',  ( 1.000000000000000000, 0.0000000000000000000, 0.0000000000000000000 ) ) ;
#409 = EDGE_CURVE ( 'NONE', #282, #399, #118, .T. ) ;
#410 = ORIENTED_EDGE ( 'NONE', *, *, #139, .T. ) ;
#411 = AXIS2_PLACEMENT_3D ( 'NONE', #14, #383, #161 ) ;
#412 =( NAMED_UNIT ( * ) SI_UNIT ( $, .STERADIAN. ) SOLID_ANGLE_UNIT ( ) );
#413 = CIRCLE ( 'NONE', #430, 1.600000000000000533 ) ;
#414 = EDGE_LOOP ( 'NONE', ( #280, #143, #55, #275 ) ) ;
#415 = SURFACE_STYLE_FILL_AREA ( #255 ) ;
#416 = ORIENTED_EDGE ( 'NONE', *, *, #368, .T. ) ;
#417 = DIRECTION ( 'NONE',  ( -0.0000000000000000000, -0.0000000000000000000, -1.000000000000000000 ) ) ;
#418 = PRODUCT_CONTEXT ( 'NONE', #204, 'mechanical' ) ;
#419 = ORIENTED_EDGE ( 'NONE', *, *, #433, .F. ) ;
#420 = CARTESIAN_POINT ( 'NONE',  ( 8.969953000073445537, -25.99596013184497778, 1.500000000000000222 ) ) ;
#421 = CARTESIAN_POINT ( 'NONE',  ( -7.581828363394512493, 45.10520558932417146, 4.000000000000000000 ) ) ;
#422 = AXIS2_PLACEMENT_3D ( 'NONE', #16, #276, #111 ) ;
#423 = CARTESIAN_POINT ( 'NONE',  ( 1.617800420355643976, -27.49999423900003492, -4.000000000000000000 ) ) ;
#424 = EDGE_CURVE ( 'NONE', #19, #39, #54, .T. ) ;
#425 = SHAPE_DEFINITION_REPRESENTATION ( #380, #119 ) ;
#426 = FACE_OUTER_BOUND ( 'NONE', #181, .T. ) ;
#427 = EDGE_CURVE ( 'NONE', #183, #177, #308, .T. ) ;
#428 = DIRECTION ( 'NONE',  ( 1.000000000000000000, 0.0000000000000000000, 0.0000000000000000000 ) ) ;
#429 = AXIS2_PLACEMENT_3D ( 'NONE', #222, #70, #106 ) ;
#430 = AXIS2_PLACEMENT_3D ( 'NONE', #188, #341, #43 ) ;
#431 = EDGE_CURVE ( 'NONE', #340, #145, #413, .T. ) ;
#432 = CARTESIAN_POINT ( 'NONE',  ( -7.581828363394512493, 45.10520558932417146, 4.000000000000000000 ) ) ;
#433 = EDGE_CURVE ( 'NONE', #348, #19, #344, .T. ) ;
#434 = CARTESIAN_POINT ( 'NONE',  ( 3.076063216169295789, -18.29986872835980094, 0.0000000000000000000 ) ) ;
ENDSEC;
END-ISO-10303-21;
