ISO-10303-21;
HEADER;
FILE_DESCRIPTION (( 'STEP AP214' ),
    '1' );
FILE_NAME ('髋关节限位块.step',
    '2026-09-25T10:03:18',
    ( '' ),
    ( '' ),
    'SwSTEP 2.0',
    'SolidWorks 2024',
    '' );
FILE_SCHEMA (( 'AUTOMOTIVE_DESIGN' ));
ENDSEC;

DATA;
#1 = COLOUR_RGB ( '',0.7921568627450980005, 0.8196078431372548767, 0.9333333333333333481 ) ;
#2 = ADVANCED_FACE ( 'NONE', ( #95, #61 ), #249, .T. ) ;
#3 = DIRECTION ( 'NONE',  ( 0.0000000000000000000, 0.0000000000000000000, 1.000000000000000000 ) ) ;
#4 = AXIS2_PLACEMENT_3D ( 'NONE', #270, #388, #507 ) ;
#5 = CARTESIAN_POINT ( 'NONE',  ( -19.44543648263015356, 6.000000000000000000, 17.94543648262995461 ) ) ;
#6 = CARTESIAN_POINT ( 'NONE',  ( -22.38817675479887015, 0.0000000000000000000, 17.96933128205071384 ) ) ;
#7 = EDGE_CURVE ( 'NONE', #195, #273, #504, .T. ) ;
#8 = CARTESIAN_POINT ( 'NONE',  ( -22.38817675479887015, -4.000000000000000000, 17.96933128205071384 ) ) ;
#9 = CARTESIAN_POINT ( 'NONE',  ( 0.0000000000000000000, 0.0000000000000000000, 0.0000000000000000000 ) ) ;
#10 = EDGE_CURVE ( 'NONE', #77, #501, #41, .T. ) ;
#11 = AXIS2_PLACEMENT_3D ( 'NONE', #347, #116, #471 ) ;
#12 = CARTESIAN_POINT ( 'NONE',  ( -19.44543648263015356, 6.000000000000000000, 16.94543648262995461 ) ) ;
#13 = EDGE_LOOP ( 'NONE', ( #30, #226, #173, #229 ) ) ;
#14 = VERTEX_POINT ( 'NONE', #100 ) ;
#15 = CYLINDRICAL_SURFACE ( 'NONE', #364, 1.499999999999997780 ) ;
#16 = DIRECTION ( 'NONE',  ( -0.0000000000000000000, -1.000000000000000000, -0.0000000000000000000 ) ) ;
#17 = EDGE_CURVE ( 'NONE', #336, #222, #367, .T. ) ;
#18 = EDGE_LOOP ( 'NONE', ( #392, #313 ) ) ;
#19 = CARTESIAN_POINT ( 'NONE',  ( 0.0000000000000000000, 6.000000000000000000, 0.0000000000000000000 ) ) ;
#20 = CIRCLE ( 'NONE', #314, 1.999999999999998224 ) ;
#21 = DIRECTION ( 'NONE',  ( -0.0000000000000000000, -1.000000000000000000, -0.0000000000000000000 ) ) ;
#22 = CARTESIAN_POINT ( 'NONE',  ( -11.08678060116014485, 6.000000000000000000, 8.133006572094915398 ) ) ;
#23 = CARTESIAN_POINT ( 'NONE',  ( -19.44543648263015356, 3.999999999999994671, 19.44543648262995461 ) ) ;
#24 = EDGE_CURVE ( 'NONE', #511, #195, #137, .T. ) ;
#25 = DIRECTION ( 'NONE',  ( 0.0000000000000000000, 0.0000000000000000000, 1.000000000000000000 ) ) ;
#26 = DIRECTION ( 'NONE',  ( 0.0000000000000000000, 0.0000000000000000000, -1.000000000000000000 ) ) ;
#27 = CARTESIAN_POINT ( 'NONE',  ( -22.17356120232028971, 6.000000000000000000, 13.26601314418983080 ) ) ;
#28 = VECTOR ( 'NONE', #129, 1000.000000000000000 ) ;
#29 = PLANE ( 'NONE',  #466 ) ;
#30 = ORIENTED_EDGE ( 'NONE', *, *, #24, .F. ) ;
#31 = DIRECTION ( 'NONE',  ( 0.0000000000000000000, 0.0000000000000000000, 1.000000000000000000 ) ) ;
#32 = VECTOR ( 'NONE', #16, 1000.000000000000000 ) ;
#33 = UNCERTAINTY_MEASURE_WITH_UNIT (LENGTH_MEASURE( 1.000000000000000082E-05 ), #373, 'distance_accuracy_value', 'NONE');
#34 = AXIS2_PLACEMENT_3D ( 'NONE', #421, #480, #127 ) ;
#35 = CARTESIAN_POINT ( 'NONE',  ( -19.44543648263015356, 0.0000000000000000000, 20.94543648262995106 ) ) ;
#36 = ORIENTED_EDGE ( 'NONE', *, *, #52, .F. ) ;
#37 = ORIENTED_EDGE ( 'NONE', *, *, #49, .T. ) ;
#38 = ORIENTED_EDGE ( 'NONE', *, *, #449, .F. ) ;
#39 = AXIS2_PLACEMENT_3D ( 'NONE', #131, #405, #51 ) ;
#40 = ORIENTED_EDGE ( 'NONE', *, *, #444, .T. ) ;
#41 = CIRCLE ( 'NONE', #87, 2.999999999999999112 ) ;
#42 = FACE_BOUND ( 'NONE', #18, .T. ) ;
#43 = ORIENTED_EDGE ( 'NONE', *, *, #197, .T. ) ;
#44 = EDGE_CURVE ( 'NONE', #222, #476, #177, .T. ) ;
#45 = DIRECTION ( 'NONE',  ( -0.0000000000000000000, -1.000000000000000000, -0.0000000000000000000 ) ) ;
#46 = MECHANICAL_DESIGN_GEOMETRIC_PRESENTATION_REPRESENTATION (  '', ( #85 ), #248 ) ;
#47 = CIRCLE ( 'NONE', #343, 1.999999999999998224 ) ;
#48 = DIRECTION ( 'NONE',  ( 0.0000000000000000000, 0.0000000000000000000, 1.000000000000000000 ) ) ;
#49 = EDGE_CURVE ( 'NONE', #511, #410, #301, .T. ) ;
#50 = CYLINDRICAL_SURFACE ( 'NONE', #39, 24.50000000000000000 ) ;
#51 = DIRECTION ( 'NONE',  ( 0.0000000000000000000, 0.0000000000000000000, -1.000000000000000000 ) ) ;
#52 = EDGE_CURVE ( 'NONE', #222, #336, #182, .T. ) ;
#53 = DIRECTION ( 'NONE',  ( -0.0000000000000000000, -1.000000000000000000, -0.0000000000000000000 ) ) ;
#54 = APPLICATION_PROTOCOL_DEFINITION ( 'draft international standard', 'automotive_design', 1998, #307 ) ;
#55 = DIRECTION ( 'NONE',  ( 0.0000000000000000000, -1.000000000000000000, 0.0000000000000000000 ) ) ;
#56 = AXIS2_PLACEMENT_3D ( 'NONE', #103, #64, #144 ) ;
#57 =( LENGTH_UNIT ( ) NAMED_UNIT ( * ) SI_UNIT ( .MILLI., .METRE. ) );
#58 = ADVANCED_FACE ( 'NONE', ( #110 ), #296, .T. ) ;
#59 = ORIENTED_EDGE ( 'NONE', *, *, #502, .T. ) ;
#60 = CARTESIAN_POINT ( 'NONE',  ( -19.44543648263015356, 3.999999999999994671, 20.94543648262995106 ) ) ;
#61 = FACE_OUTER_BOUND ( 'NONE', #348, .T. ) ;
#62 = CARTESIAN_POINT ( 'NONE',  ( -19.75462725297626676, 6.000000000000000000, 14.49153898300547993 ) ) ;
#63 = AXIS2_PLACEMENT_3D ( 'NONE', #91, #290, #451 ) ;
#64 = DIRECTION ( 'NONE',  ( -0.0000000000000000000, 1.000000000000000000, -0.0000000000000000000 ) ) ;
#65 = DIRECTION ( 'NONE',  ( 0.0000000000000000000, -0.0000000000000000000, 1.000000000000000000 ) ) ;
#66 = FACE_OUTER_BOUND ( 'NONE', #289, .T. ) ;
#67 = CARTESIAN_POINT ( 'NONE',  ( -22.17356120232028971, 6.000000000000000000, 16.26601314418983080 ) ) ;
#68 = ORIENTED_EDGE ( 'NONE', *, *, #10, .F. ) ;
#69 = CARTESIAN_POINT ( 'NONE',  ( -16.26601314419006528, 6.000000000000000000, 22.17356120232011918 ) ) ;
#70 = CYLINDRICAL_SURFACE ( 'NONE', #510, 1.499999999999997780 ) ;
#71 = UNCERTAINTY_MEASURE_WITH_UNIT (LENGTH_MEASURE( 1.000000000000000082E-05 ), #57, 'distance_accuracy_value', 'NONE');
#72 = DIRECTION ( 'NONE',  ( -0.0000000000000000000, 1.000000000000000000, -0.0000000000000000000 ) ) ;
#73 = ORIENTED_EDGE ( 'NONE', *, *, #444, .F. ) ;
#74 = CARTESIAN_POINT ( 'NONE',  ( -15.96933128205094832, -4.000000000000000000, 22.38817675479869607 ) ) ;
#75 = CIRCLE ( 'NONE', #277, 30.50000000000000000 ) ;
#76 = LINE ( 'NONE', #481, #353 ) ;
#77 = VERTEX_POINT ( 'NONE', #136 ) ;
#78 = CIRCLE ( 'NONE', #346, 2.999999999999995559 ) ;
#79 = PRODUCT_DEFINITION_CONTEXT ( 'detailed design', #307, 'design' ) ;
#80 = PLANE ( 'NONE',  #294 ) ;
#81 = VERTEX_POINT ( 'NONE', #493 ) ;
#82 = ADVANCED_FACE ( 'NONE', ( #94 ), #99, .T. ) ;
#83 = EDGE_LOOP ( 'NONE', ( #463, #335 ) ) ;
#84 = ORIENTED_EDGE ( 'NONE', *, *, #224, .T. ) ;
#85 = STYLED_ITEM ( 'NONE', ( #370 ), #281 ) ;
#86 = ORIENTED_EDGE ( 'NONE', *, *, #302, .F. ) ;
#87 = AXIS2_PLACEMENT_3D ( 'NONE', #291, #491, #339 ) ;
#88 = FACE_OUTER_BOUND ( 'NONE', #325, .T. ) ;
#89 = EDGE_CURVE ( 'NONE', #14, #389, #162, .T. ) ;
#90 = DIRECTION ( 'NONE',  ( -0.0000000000000000000, -1.000000000000000000, -0.0000000000000000000 ) ) ;
#91 = CARTESIAN_POINT ( 'NONE',  ( 0.0000000000000000000, 6.000000000000000000, 0.0000000000000000000 ) ) ;
#92 = DIRECTION ( 'NONE',  ( -0.0000000000000000000, -1.000000000000000000, -0.0000000000000000000 ) ) ;
#93 = DIRECTION ( 'NONE',  ( 0.0000000000000000000, 0.0000000000000000000, -1.000000000000000000 ) ) ;
#94 = FACE_OUTER_BOUND ( 'NONE', #233, .T. ) ;
#95 = FACE_BOUND ( 'NONE', #386, .T. ) ;
#96 = VECTOR ( 'NONE', #443, 1000.000000000000000 ) ;
#97 = AXIS2_PLACEMENT_3D ( 'NONE', #208, #207, #247 ) ;
#98 = DIRECTION ( 'NONE',  ( -0.0000000000000000000, 1.000000000000000000, -0.0000000000000000000 ) ) ;
#99 = CYLINDRICAL_SURFACE ( 'NONE', #447, 2.999999999999999112 ) ;
#100 = CARTESIAN_POINT ( 'NONE',  ( -22.38817675479887015, -4.000000000000000000, 13.96933128205071739 ) ) ;
#101 = DIRECTION ( 'NONE',  ( 0.0000000000000000000, 0.0000000000000000000, 1.000000000000000000 ) ) ;
#102 = EDGE_CURVE ( 'NONE', #117, #372, #20, .T. ) ;
#103 = CARTESIAN_POINT ( 'NONE',  ( -19.44543648263015356, 6.000000000000000000, 19.44543648262995461 ) ) ;
#104 = ORIENTED_EDGE ( 'NONE', *, *, #317, .F. ) ;
#105 = DIRECTION ( 'NONE',  ( 0.0000000000000000000, 1.000000000000000000, 0.0000000000000000000 ) ) ;
#106 = ORIENTED_EDGE ( 'NONE', *, *, #17, .T. ) ;
#107 = ADVANCED_FACE ( 'NONE', ( #295 ), #378, .F. ) ;
#108 = FACE_OUTER_BOUND ( 'NONE', #260, .T. ) ;
#109 = PRESENTATION_LAYER_ASSIGNMENT (  '', '', ( #85 ) ) ;
#110 = FACE_OUTER_BOUND ( 'NONE', #509, .T. ) ;
#111 = LINE ( 'NONE', #27, #359 ) ;
#112 = AXIS2_PLACEMENT_3D ( 'NONE', #187, #225, #341 ) ;
#113 = FACE_OUTER_BOUND ( 'NONE', #316, .T. ) ;
#114 = ORIENTED_EDGE ( 'NONE', *, *, #230, .T. ) ;
#115 = DIRECTION ( 'NONE',  ( 0.0000000000000000000, 0.0000000000000000000, -1.000000000000000000 ) ) ;
#116 = DIRECTION ( 'NONE',  ( 0.0000000000000000000, 1.000000000000000000, 0.0000000000000000000 ) ) ;
#117 = VERTEX_POINT ( 'NONE', #298 ) ;
#118 = EDGE_CURVE ( 'NONE', #81, #199, #217, .T. ) ;
#119 = CARTESIAN_POINT ( 'NONE',  ( -19.44543648263015356, 3.999999999999994671, 17.94543648262995461 ) ) ;
#120 = EDGE_LOOP ( 'NONE', ( #472, #468 ) ) ;
#121 = VERTEX_POINT ( 'NONE', #185 ) ;
#122 = EDGE_CURVE ( 'NONE', #315, #268, #169, .T. ) ;
#123 = ORIENTED_EDGE ( 'NONE', *, *, #355, .T. ) ;
#124 = ADVANCED_FACE ( 'NONE', ( #272 ), #238, .T. ) ;
#125 = VERTEX_POINT ( 'NONE', #119 ) ;
#126 = CONICAL_SURFACE ( 'NONE', #365, 2.499999999999998668, 0.4636476090008052053 ) ;
#127 = DIRECTION ( 'NONE',  ( 0.0000000000000000000, 0.0000000000000000000, 1.000000000000000000 ) ) ;
#128 = LINE ( 'NONE', #175, #96 ) ;
#129 = DIRECTION ( 'NONE',  ( -0.0000000000000000000, -1.000000000000000000, -0.0000000000000000000 ) ) ;
#130 = CIRCLE ( 'NONE', #198, 1.700000000000000178 ) ;
#131 = CARTESIAN_POINT ( 'NONE',  ( 0.0000000000000000000, 6.000000000000000000, 0.0000000000000000000 ) ) ;
#132 = CIRCLE ( 'NONE', #211, 24.50000000000000000 ) ;
#133 = DIRECTION ( 'NONE',  ( 0.0000000000000000000, 0.0000000000000000000, 1.000000000000000000 ) ) ;
#134 = ORIENTED_EDGE ( 'NONE', *, *, #118, .T. ) ;
#135 = ADVANCED_FACE ( 'NONE', ( #88 ), #431, .T. ) ;
#136 = CARTESIAN_POINT ( 'NONE',  ( -22.17356120232028971, 6.000000000000000000, 13.26601314418983080 ) ) ;
#137 = LINE ( 'NONE', #254, #32 ) ;
#138 = CYLINDRICAL_SURFACE ( 'NONE', #454, 2.999999999999999112 ) ;
#139 = DIRECTION ( 'NONE',  ( 0.0000000000000000000, 0.0000000000000000000, 1.000000000000000000 ) ) ;
#140 = EDGE_LOOP ( 'NONE', ( #73, #369 ) ) ;
#141 = DIRECTION ( 'NONE',  ( -0.0000000000000000000, 1.000000000000000000, -0.0000000000000000000 ) ) ;
#142 = ADVANCED_BREP_SHAPE_REPRESENTATION ( '\X2\9acb5173828296504f4d5757\X0\', ( #281, #464 ), #332 ) ;
#143 = EDGE_CURVE ( 'NONE', #14, #117, #154, .T. ) ;
#144 = DIRECTION ( 'NONE',  ( 0.0000000000000000000, 0.0000000000000000000, 1.000000000000000000 ) ) ;
#145 = ORIENTED_EDGE ( 'NONE', *, *, #230, .F. ) ;
#146 = DIRECTION ( 'NONE',  ( -0.0000000000000000000, -1.000000000000000000, -0.0000000000000000000 ) ) ;
#147 = CARTESIAN_POINT ( 'NONE',  ( -15.96933128205094832, -4.000000000000000000, 20.68817675479869322 ) ) ;
#148 = CARTESIAN_POINT ( 'NONE',  ( -18.04048730537444101, 0.0000000000000000000, 24.59249515166412792 ) ) ;
#149 = CARTESIAN_POINT ( 'NONE',  ( -22.38817675479887015, -4.000000000000000000, 15.96933128205071561 ) ) ;
#150 = AXIS2_PLACEMENT_3D ( 'NONE', #340, #459, #419 ) ;
#151 = EDGE_LOOP ( 'NONE', ( #106, #354 ) ) ;
#152 = DIRECTION ( 'NONE',  ( 0.0000000000000000000, 0.0000000000000000000, -1.000000000000000000 ) ) ;
#153 = AXIS2_PLACEMENT_3D ( 'NONE', #330, #179, #334 ) ;
#154 = LINE ( 'NONE', #311, #219 ) ;
#155 = ORIENTED_EDGE ( 'NONE', *, *, #143, .F. ) ;
#156 = EDGE_CURVE ( 'NONE', #455, #410, #512, .T. ) ;
#157 = CARTESIAN_POINT ( 'NONE',  ( -15.96933128205094832, -4.000000000000000000, 22.38817675479869607 ) ) ;
#158 = ORIENTED_EDGE ( 'NONE', *, *, #122, .F. ) ;
#159 = ADVANCED_FACE ( 'NONE', ( #441, #358, #113, #42 ), #80, .F. ) ;
#160 = CIRCLE ( 'NONE', #97, 2.999999999999995559 ) ;
#161 = ORIENTED_EDGE ( 'NONE', *, *, #407, .F. ) ;
#162 = CIRCLE ( 'NONE', #153, 1.999999999999998224 ) ;
#163 = ORIENTED_EDGE ( 'NONE', *, *, #302, .T. ) ;
#164 = ORIENTED_EDGE ( 'NONE', *, *, #293, .T. ) ;
#165 = DIRECTION ( 'NONE',  ( 0.0000000000000000000, 1.000000000000000000, 0.0000000000000000000 ) ) ;
#166 = AXIS2_PLACEMENT_3D ( 'NONE', #399, #172, #48 ) ;
#167 = AXIS2_PLACEMENT_3D ( 'NONE', #74, #292, #31 ) ;
#168 = DIRECTION ( 'NONE',  ( -0.0000000000000000000, 1.000000000000000000, -0.0000000000000000000 ) ) ;
#169 = CIRCLE ( 'NONE', #4, 2.999999999999999112 ) ;
#170 = FACE_OUTER_BOUND ( 'NONE', #506, .T. ) ;
#171 = CARTESIAN_POINT ( 'NONE',  ( -19.44543648263015356, 0.0000000000000000000, 17.94543648262995461 ) ) ;
#172 = DIRECTION ( 'NONE',  ( 0.0000000000000000000, 1.000000000000000000, 0.0000000000000000000 ) ) ;
#173 = ORIENTED_EDGE ( 'NONE', *, *, #317, .T. ) ;
#174 = ORIENTED_EDGE ( 'NONE', *, *, #497, .F. ) ;
#175 = CARTESIAN_POINT ( 'NONE',  ( -15.96933128205094832, -4.000000000000000000, 24.08817675479869536 ) ) ;
#176 = DIRECTION ( 'NONE',  ( 0.0000000000000000000, 0.0000000000000000000, -1.000000000000000000 ) ) ;
#177 = LINE ( 'NONE', #147, #457 ) ;
#178 = VECTOR ( 'NONE', #53, 1000.000000000000000 ) ;
#179 = DIRECTION ( 'NONE',  ( 0.0000000000000000000, -1.000000000000000000, 0.0000000000000000000 ) ) ;
#180 = ORIENTED_EDGE ( 'NONE', *, *, #484, .F. ) ;
#181 = ORIENTED_EDGE ( 'NONE', *, *, #44, .T. ) ;
#182 = CIRCLE ( 'NONE', #244, 1.700000000000000178 ) ;
#183 = CARTESIAN_POINT ( 'NONE',  ( -19.44543648263015356, 6.000000000000000000, 21.94543648262995106 ) ) ;
#184 = EDGE_CURVE ( 'NONE', #418, #199, #78, .T. ) ;
#185 = CARTESIAN_POINT ( 'NONE',  ( -19.75462725297626676, 0.0000000000000000000, 14.49153898300547993 ) ) ;
#186 = DIRECTION ( 'NONE',  ( 0.0000000000000000000, 0.0000000000000000000, 1.000000000000000000 ) ) ;
#187 = CARTESIAN_POINT ( 'NONE',  ( -19.44543648263015356, 3.999999999999994671, 19.44543648262995461 ) ) ;
#188 = EDGE_LOOP ( 'NONE', ( #215, #278, #305, #134 ) ) ;
#189 = FACE_OUTER_BOUND ( 'NONE', #422, .T. ) ;
#190 = DIRECTION ( 'NONE',  ( 0.0000000000000000000, -0.0000000000000000000, -1.000000000000000000 ) ) ;
#191 = ORIENTED_EDGE ( 'NONE', *, *, #470, .T. ) ;
#192 = CARTESIAN_POINT ( 'NONE',  ( -19.44543648263015356, 0.0000000000000000000, 19.44543648262995461 ) ) ;
#193 = AXIS2_PLACEMENT_3D ( 'NONE', #149, #279, #202 ) ;
#194 = CYLINDRICAL_SURFACE ( 'NONE', #360, 1.700000000000000178 ) ;
#195 = VERTEX_POINT ( 'NONE', #35 ) ;
#196 = VERTEX_POINT ( 'NONE', #391 ) ;
#197 = EDGE_CURVE ( 'NONE', #81, #432, #132, .T. ) ;
#198 = AXIS2_PLACEMENT_3D ( 'NONE', #416, #342, #259 ) ;
#199 = VERTEX_POINT ( 'NONE', #319 ) ;
#200 = VERTEX_POINT ( 'NONE', #221 ) ;
#201 = DIRECTION ( 'NONE',  ( 0.0000000000000000000, -0.0000000000000000000, 1.000000000000000000 ) ) ;
#202 = DIRECTION ( 'NONE',  ( 0.0000000000000000000, 0.0000000000000000000, 1.000000000000000000 ) ) ;
#203 = CIRCLE ( 'NONE', #375, 1.499999999999997780 ) ;
#204 = EDGE_CURVE ( 'NONE', #196, #418, #76, .T. ) ;
#205 = AXIS2_PLACEMENT_3D ( 'NONE', #467, #168, #3 ) ;
#206 = EDGE_CURVE ( 'NONE', #476, #200, #420, .T. ) ;
#207 = DIRECTION ( 'NONE',  ( 0.0000000000000000000, 1.000000000000000000, -0.0000000000000000000 ) ) ;
#208 = CARTESIAN_POINT ( 'NONE',  ( -16.26601314419006528, 6.000000000000000000, 22.17356120232011918 ) ) ;
#209 = EDGE_CURVE ( 'NONE', #432, #77, #485, .T. ) ;
#210 = FILL_AREA_STYLE ('',( #288 ) ) ;
#211 = AXIS2_PLACEMENT_3D ( 'NONE', #356, #45, #320 ) ;
#212 = ORIENTED_EDGE ( 'NONE', *, *, #209, .F. ) ;
#213 = CARTESIAN_POINT ( 'NONE',  ( -19.44543648263015356, 6.000000000000000000, 19.44543648262995461 ) ) ;
#214 = CARTESIAN_POINT ( 'NONE',  ( -15.96933128205094832, -4.000000000000000000, 22.38817675479869607 ) ) ;
#215 = ORIENTED_EDGE ( 'NONE', *, *, #351, .T. ) ;
#216 = DIRECTION ( 'NONE',  ( -0.0000000000000000000, -1.000000000000000000, -0.0000000000000000000 ) ) ;
#217 = LINE ( 'NONE', #379, #231 ) ;
#218 = ORIENTED_EDGE ( 'NONE', *, *, #10, .T. ) ;
#219 = VECTOR ( 'NONE', #232, 1000.000000000000000 ) ;
#220 = DIRECTION ( 'NONE',  ( 0.0000000000000000000, -1.000000000000000000, 0.0000000000000000000 ) ) ;
#221 = CARTESIAN_POINT ( 'NONE',  ( -15.96933128205094832, 0.0000000000000000000, 24.08817675479869536 ) ) ;
#222 = VERTEX_POINT ( 'NONE', #425 ) ;
#223 = CARTESIAN_POINT ( 'NONE',  ( -22.17356120232028971, 6.000000000000000000, 16.26601314418983080 ) ) ;
#224 = EDGE_CURVE ( 'NONE', #511, #125, #251, .T. ) ;
#225 = DIRECTION ( 'NONE',  ( 0.0000000000000000000, -1.000000000000000000, 0.0000000000000000000 ) ) ;
#226 = ORIENTED_EDGE ( 'NONE', *, *, #502, .F. ) ;
#227 = DIRECTION ( 'NONE',  ( -0.0000000000000000000, -1.000000000000000000, -0.0000000000000000000 ) ) ;
#228 = FACE_OUTER_BOUND ( 'NONE', #276, .T. ) ;
#229 = ORIENTED_EDGE ( 'NONE', *, *, #7, .F. ) ;
#230 = EDGE_CURVE ( 'NONE', #389, #372, #500, .T. ) ;
#231 = VECTOR ( 'NONE', #21, 1000.000000000000000 ) ;
#232 = DIRECTION ( 'NONE',  ( -0.0000000000000000000, 1.000000000000000000, -0.0000000000000000000 ) ) ;
#233 = EDGE_LOOP ( 'NONE', ( #68, #237, #271, #86 ) ) ;
#234 = ORIENTED_EDGE ( 'NONE', *, *, #24, .T. ) ;
#235 = EDGE_LOOP ( 'NONE', ( #123, #450, #161, #163 ) ) ;
#236 = CIRCLE ( 'NONE', #11, 2.999999999999999112 ) ;
#237 = ORIENTED_EDGE ( 'NONE', *, *, #477, .T. ) ;
#238 = PLANE ( 'NONE',  #440 ) ;
#239 = PRODUCT_CONTEXT ( 'NONE', #448, 'mechanical' ) ;
#240 = DIRECTION ( 'NONE',  ( 0.0000000000000000000, 0.0000000000000000000, 1.000000000000000000 ) ) ;
#241 = VECTOR ( 'NONE', #146, 1000.000000000000000 ) ;
#242 = FACE_OUTER_BOUND ( 'NONE', #188, .T. ) ;
#243 = SHAPE_DEFINITION_REPRESENTATION ( #442, #142 ) ;
#244 = AXIS2_PLACEMENT_3D ( 'NONE', #214, #261, #331 ) ;
#245 = ADVANCED_FACE ( 'NONE', ( #385 ), #29, .T. ) ;
#246 = SURFACE_STYLE_FILL_AREA ( #210 ) ;
#247 = DIRECTION ( 'NONE',  ( 0.0000000000000000000, 0.0000000000000000000, -1.000000000000000000 ) ) ;
#248 =( GEOMETRIC_REPRESENTATION_CONTEXT ( 3 ) GLOBAL_UNCERTAINTY_ASSIGNED_CONTEXT ( ( #71 ) ) GLOBAL_UNIT_ASSIGNED_CONTEXT ( ( #57, #287, #361 ) ) REPRESENTATION_CONTEXT ( 'NONE', 'WORKASPACE' ) );
#249 = PLANE ( 'NONE',  #433 ) ;
#250 = SURFACE_STYLE_USAGE ( .BOTH. , #445 ) ;
#251 = CIRCLE ( 'NONE', #112, 1.499999999999997780 ) ;
#252 = CARTESIAN_POINT ( 'NONE',  ( -22.17356120232028971, 6.000000000000000000, 16.26601314418983080 ) ) ;
#253 = CLOSED_SHELL ( 'NONE', ( #135, #492, #473, #275, #82, #2, #159, #404, #349, #58, #377, #446, #107, #266, #124, #435, #245 ) ) ;
#254 = CARTESIAN_POINT ( 'NONE',  ( -19.44543648263015356, 6.000000000000000000, 20.94543648262995106 ) ) ;
#255 = CARTESIAN_POINT ( 'NONE',  ( -24.59249515166433042, 6.000000000000000000, 18.04048730537416745 ) ) ;
#256 = CARTESIAN_POINT ( 'NONE',  ( -22.38817675479887015, 0.0000000000000000000, 15.96933128205071561 ) ) ;
#257 = EDGE_CURVE ( 'NONE', #121, #315, #236, .T. ) ;
#258 = CARTESIAN_POINT ( 'NONE',  ( -19.44543648263015356, 0.0000000000000000000, 19.44543648262995461 ) ) ;
#259 = DIRECTION ( 'NONE',  ( 0.0000000000000000000, 0.0000000000000000000, 1.000000000000000000 ) ) ;
#260 = EDGE_LOOP ( 'NONE', ( #84, #486, #328, #310 ) ) ;
#261 = DIRECTION ( 'NONE',  ( 0.0000000000000000000, -1.000000000000000000, 0.0000000000000000000 ) ) ;
#262 = DIRECTION ( 'NONE',  ( -0.0000000000000000000, -1.000000000000000000, -0.0000000000000000000 ) ) ;
#263 = DIRECTION ( 'NONE',  ( -0.0000000000000000000, -1.000000000000000000, -0.0000000000000000000 ) ) ;
#264 = ORIENTED_EDGE ( 'NONE', *, *, #184, .T. ) ;
#265 = CARTESIAN_POINT ( 'NONE',  ( -22.38817675479887015, 0.0000000000000000000, 15.96933128205071561 ) ) ;
#266 = ADVANCED_FACE ( 'NONE', ( #228 ), #194, .T. ) ;
#267 = CARTESIAN_POINT ( 'NONE',  ( -22.38817675479887015, -4.000000000000000000, 17.96933128205071384 ) ) ;
#268 = VERTEX_POINT ( 'NONE', #326 ) ;
#269 = DIRECTION ( 'NONE',  ( 0.0000000000000000000, 0.0000000000000000000, -1.000000000000000000 ) ) ;
#270 = CARTESIAN_POINT ( 'NONE',  ( -22.17356120232028971, 0.0000000000000000000, 16.26601314418983080 ) ) ;
#271 = ORIENTED_EDGE ( 'NONE', *, *, #122, .T. ) ;
#272 = FACE_OUTER_BOUND ( 'NONE', #151, .T. ) ;
#273 = VERTEX_POINT ( 'NONE', #171 ) ;
#274 = ORIENTED_EDGE ( 'NONE', *, *, #484, .T. ) ;
#275 = ADVANCED_FACE ( 'NONE', ( #170 ), #15, .F. ) ;
#276 = EDGE_LOOP ( 'NONE', ( #312, #394, #164, #40 ) ) ;
#277 = AXIS2_PLACEMENT_3D ( 'NONE', #19, #105, #469 ) ;
#278 = ORIENTED_EDGE ( 'NONE', *, *, #470, .F. ) ;
#279 = DIRECTION ( 'NONE',  ( -0.0000000000000000000, 1.000000000000000000, -0.0000000000000000000 ) ) ;
#280 = VECTOR ( 'NONE', #414, 1000.000000000000114 ) ;
#281 = MANIFOLD_SOLID_BREP ( '凸台-拉伸2', #253 ) ;
#282 = FACE_OUTER_BOUND ( 'NONE', #235, .T. ) ;
#283 = DIRECTION ( 'NONE',  ( 0.0000000000000000000, 0.0000000000000000000, 1.000000000000000000 ) ) ;
#284 = DIRECTION ( 'NONE',  ( 5.476786982642016383E-17, 0.8944271909999161885, -0.4472135954999570950 ) ) ;
#285 = VECTOR ( 'NONE', #284, 1000.000000000000114 ) ;
#286 = EDGE_CURVE ( 'NONE', #196, #81, #160, .T. ) ;
#287 =( NAMED_UNIT ( * ) PLANE_ANGLE_UNIT ( ) SI_UNIT ( $, .RADIAN. ) );
#288 = FILL_AREA_STYLE_COLOUR ( '', #1 ) ;
#289 = EDGE_LOOP ( 'NONE', ( #36, #181, #434, #498 ) ) ;
#290 = DIRECTION ( 'NONE',  ( -0.0000000000000000000, -1.000000000000000000, -0.0000000000000000000 ) ) ;
#291 = CARTESIAN_POINT ( 'NONE',  ( -22.17356120232028971, 6.000000000000000000, 16.26601314418983080 ) ) ;
#292 = DIRECTION ( 'NONE',  ( -0.0000000000000000000, 1.000000000000000000, -0.0000000000000000000 ) ) ;
#293 = EDGE_CURVE ( 'NONE', #336, #200, #128, .T. ) ;
#294 = AXIS2_PLACEMENT_3D ( 'NONE', #514, #165, #201 ) ;
#295 = FACE_OUTER_BOUND ( 'NONE', #436, .T. ) ;
#296 = CYLINDRICAL_SURFACE ( 'NONE', #411, 2.999999999999995559 ) ;
#297 = CARTESIAN_POINT ( 'NONE',  ( -19.44543648263015356, 6.000000000000000000, 19.44543648262995461 ) ) ;
#298 = CARTESIAN_POINT ( 'NONE',  ( -22.38817675479887015, 0.0000000000000000000, 13.96933128205071739 ) ) ;
#299 = DIRECTION ( 'NONE',  ( -0.0000000000000000000, 1.000000000000000000, -0.0000000000000000000 ) ) ;
#300 = CARTESIAN_POINT ( 'NONE',  ( -19.44543648263015356, 6.000000000000000000, 19.44543648262995461 ) ) ;
#301 = LINE ( 'NONE', #460, #280 ) ;
#302 = EDGE_CURVE ( 'NONE', #501, #268, #329, .T. ) ;
#303 = CARTESIAN_POINT ( 'NONE',  ( -22.38817675479887015, -4.000000000000000000, 15.96933128205071561 ) ) ;
#304 = DIRECTION ( 'NONE',  ( 0.0000000000000000000, -1.000000000000000000, 0.0000000000000000000 ) ) ;
#305 = ORIENTED_EDGE ( 'NONE', *, *, #197, .F. ) ;
#306 = PRODUCT_DEFINITION ( '鏈', '', #438, #79 ) ;
#307 = APPLICATION_CONTEXT ( 'automotive_design' ) ;
#308 = DIRECTION ( 'NONE',  ( 0.0000000000000000000, -1.000000000000000000, 0.0000000000000000000 ) ) ;
#309 = DIRECTION ( 'NONE',  ( 0.0000000000000000000, -0.0000000000000000000, -1.000000000000000000 ) ) ;
#310 = ORIENTED_EDGE ( 'NONE', *, *, #49, .F. ) ;
#311 = CARTESIAN_POINT ( 'NONE',  ( -22.38817675479887015, -4.000000000000000000, 13.96933128205071739 ) ) ;
#312 = ORIENTED_EDGE ( 'NONE', *, *, #44, .F. ) ;
#313 = ORIENTED_EDGE ( 'NONE', *, *, #7, .T. ) ;
#314 = AXIS2_PLACEMENT_3D ( 'NONE', #256, #490, #139 ) ;
#315 = VERTEX_POINT ( 'NONE', #362 ) ;
#316 = EDGE_LOOP ( 'NONE', ( #368, #352, #494, #396, #158 ) ) ;
#317 = EDGE_CURVE ( 'NONE', #125, #273, #482, .T. ) ;
#318 = CIRCLE ( 'NONE', #166, 30.50000000000000000 ) ;
#319 = CARTESIAN_POINT ( 'NONE',  ( -14.49153898300570020, 0.0000000000000000000, 19.75462725297610689 ) ) ;
#320 = DIRECTION ( 'NONE',  ( 0.0000000000000000000, 0.0000000000000000000, 1.000000000000000000 ) ) ;
#321 = CARTESIAN_POINT ( 'NONE',  ( -24.59249515166433042, 6.000000000000000000, 18.04048730537416745 ) ) ;
#322 = LINE ( 'NONE', #12, #285 ) ;
#323 = FACE_OUTER_BOUND ( 'NONE', #508, .T. ) ;
#324 = AXIS2_PLACEMENT_3D ( 'NONE', #67, #382, #25 ) ;
#325 = EDGE_LOOP ( 'NONE', ( #513, #380, #350, #145 ) ) ;
#326 = CARTESIAN_POINT ( 'NONE',  ( -24.59249515166433042, 0.0000000000000000000, 18.04048730537416745 ) ) ;
#327 = ORIENTED_EDGE ( 'NONE', *, *, #338, .F. ) ;
#328 = ORIENTED_EDGE ( 'NONE', *, *, #156, .T. ) ;
#329 = LINE ( 'NONE', #321, #178 ) ;
#330 = CARTESIAN_POINT ( 'NONE',  ( -22.38817675479887015, -4.000000000000000000, 15.96933128205071561 ) ) ;
#331 = DIRECTION ( 'NONE',  ( 0.0000000000000000000, 0.0000000000000000000, -1.000000000000000000 ) ) ;
#332 =( GEOMETRIC_REPRESENTATION_CONTEXT ( 3 ) GLOBAL_UNCERTAINTY_ASSIGNED_CONTEXT ( ( #33 ) ) GLOBAL_UNIT_ASSIGNED_CONTEXT ( ( #373, #333, #398 ) ) REPRESENTATION_CONTEXT ( 'NONE', 'WORKASPACE' ) );
#333 =( NAMED_UNIT ( * ) PLANE_ANGLE_UNIT ( ) SI_UNIT ( $, .RADIAN. ) );
#334 = DIRECTION ( 'NONE',  ( 0.0000000000000000000, 0.0000000000000000000, -1.000000000000000000 ) ) ;
#335 = ORIENTED_EDGE ( 'NONE', *, *, #102, .F. ) ;
#336 = VERTEX_POINT ( 'NONE', #366 ) ;
#337 = CARTESIAN_POINT ( 'NONE',  ( -19.75462725297626676, 6.000000000000000000, 14.49153898300547993 ) ) ;
#338 = EDGE_CURVE ( 'NONE', #125, #455, #322, .T. ) ;
#339 = DIRECTION ( 'NONE',  ( 0.0000000000000000000, 0.0000000000000000000, 1.000000000000000000 ) ) ;
#340 = CARTESIAN_POINT ( 'NONE',  ( -19.44543648263015356, 6.000000000000000000, 19.44543648262995461 ) ) ;
#341 = DIRECTION ( 'NONE',  ( 0.0000000000000000000, 0.0000000000000000000, 1.000000000000000000 ) ) ;
#342 = DIRECTION ( 'NONE',  ( -0.0000000000000000000, -1.000000000000000000, -0.0000000000000000000 ) ) ;
#343 = AXIS2_PLACEMENT_3D ( 'NONE', #376, #308, #269 ) ;
#344 = CARTESIAN_POINT ( 'NONE',  ( -22.38817675479887015, -4.000000000000000000, 15.96933128205071561 ) ) ;
#345 = ORIENTED_EDGE ( 'NONE', *, *, #156, .F. ) ;
#346 = AXIS2_PLACEMENT_3D ( 'NONE', #428, #397, #474 ) ;
#347 = CARTESIAN_POINT ( 'NONE',  ( -22.17356120232028971, 0.0000000000000000000, 16.26601314418983080 ) ) ;
#348 = EDGE_LOOP ( 'NONE', ( #439, #218, #479, #429, #43 ) ) ;
#349 = ADVANCED_FACE ( 'NONE', ( #282 ), #487, .T. ) ;
#350 = ORIENTED_EDGE ( 'NONE', *, *, #102, .T. ) ;
#351 = EDGE_CURVE ( 'NONE', #199, #121, #437, .T. ) ;
#352 = ORIENTED_EDGE ( 'NONE', *, *, #351, .F. ) ;
#353 = VECTOR ( 'NONE', #263, 1000.000000000000000 ) ;
#354 = ORIENTED_EDGE ( 'NONE', *, *, #52, .T. ) ;
#355 = EDGE_CURVE ( 'NONE', #268, #418, #318, .T. ) ;
#356 = CARTESIAN_POINT ( 'NONE',  ( 0.0000000000000000000, 6.000000000000000000, 0.0000000000000000000 ) ) ;
#357 = CIRCLE ( 'NONE', #430, 1.999999999999998224 ) ;
#358 = FACE_BOUND ( 'NONE', #140, .T. ) ;
#359 = VECTOR ( 'NONE', #262, 1000.000000000000000 ) ;
#360 = AXIS2_PLACEMENT_3D ( 'NONE', #406, #98, #133 ) ;
#361 =( NAMED_UNIT ( * ) SI_UNIT ( $, .STERADIAN. ) SOLID_ANGLE_UNIT ( ) );
#362 = CARTESIAN_POINT ( 'NONE',  ( -22.17356120232028971, 0.0000000000000000000, 13.26601314418983080 ) ) ;
#363 = APPLICATION_PROTOCOL_DEFINITION ( 'draft international standard', 'automotive_design', 1998, #448 ) ;
#364 = AXIS2_PLACEMENT_3D ( 'NONE', #213, #92, #93 ) ;
#365 = AXIS2_PLACEMENT_3D ( 'NONE', #300, #384, #101 ) ;
#366 = CARTESIAN_POINT ( 'NONE',  ( -15.96933128205094832, -4.000000000000000000, 24.08817675479869536 ) ) ;
#367 = CIRCLE ( 'NONE', #402, 1.700000000000000178 ) ;
#368 = ORIENTED_EDGE ( 'NONE', *, *, #257, .F. ) ;
#369 = ORIENTED_EDGE ( 'NONE', *, *, #206, .F. ) ;
#370 = PRESENTATION_STYLE_ASSIGNMENT (( #250 ) ) ;
#371 = DIRECTION ( 'NONE',  ( -0.0000000000000000000, -1.000000000000000000, -0.0000000000000000000 ) ) ;
#372 = VERTEX_POINT ( 'NONE', #6 ) ;
#373 =( LENGTH_UNIT ( ) NAMED_UNIT ( * ) SI_UNIT ( .MILLI., .METRE. ) );
#374 = DIRECTION ( 'NONE',  ( 0.0000000000000000000, 0.0000000000000000000, -1.000000000000000000 ) ) ;
#375 = AXIS2_PLACEMENT_3D ( 'NONE', #23, #220, #413 ) ;
#376 = CARTESIAN_POINT ( 'NONE',  ( -22.38817675479887015, -4.000000000000000000, 15.96933128205071561 ) ) ;
#377 = ADVANCED_FACE ( 'NONE', ( #242 ), #50, .F. ) ;
#378 = CONICAL_SURFACE ( 'NONE', #56, 2.499999999999998668, 0.4636476090008052053 ) ;
#379 = CARTESIAN_POINT ( 'NONE',  ( -14.49153898300570020, 6.000000000000000000, 19.75462725297610689 ) ) ;
#380 = ORIENTED_EDGE ( 'NONE', *, *, #143, .T. ) ;
#381 = DIRECTION ( 'NONE',  ( 0.0000000000000000000, 1.000000000000000000, 0.0000000000000000000 ) ) ;
#382 = DIRECTION ( 'NONE',  ( 0.0000000000000000000, 1.000000000000000000, 0.0000000000000000000 ) ) ;
#383 = CARTESIAN_POINT ( 'NONE',  ( -15.96933128205094832, -4.000000000000000000, 22.38817675479869607 ) ) ;
#384 = DIRECTION ( 'NONE',  ( -0.0000000000000000000, 1.000000000000000000, -0.0000000000000000000 ) ) ;
#385 = FACE_OUTER_BOUND ( 'NONE', #120, .T. ) ;
#386 = EDGE_LOOP ( 'NONE', ( #180, #345 ) ) ;
#387 = FACE_OUTER_BOUND ( 'NONE', #13, .T. ) ;
#388 = DIRECTION ( 'NONE',  ( 0.0000000000000000000, 1.000000000000000000, 0.0000000000000000000 ) ) ;
#389 = VERTEX_POINT ( 'NONE', #8 ) ;
#390 = AXIS2_PLACEMENT_3D ( 'NONE', #258, #423, #186 ) ;
#391 = CARTESIAN_POINT ( 'NONE',  ( -18.04048730537444101, 6.000000000000000000, 24.59249515166412792 ) ) ;
#392 = ORIENTED_EDGE ( 'NONE', *, *, #497, .T. ) ;
#393 = ORIENTED_EDGE ( 'NONE', *, *, #415, .T. ) ;
#394 = ORIENTED_EDGE ( 'NONE', *, *, #17, .F. ) ;
#395 = VECTOR ( 'NONE', #72, 1000.000000000000000 ) ;
#396 = ORIENTED_EDGE ( 'NONE', *, *, #355, .F. ) ;
#397 = DIRECTION ( 'NONE',  ( 0.0000000000000000000, 1.000000000000000000, -0.0000000000000000000 ) ) ;
#398 =( NAMED_UNIT ( * ) SI_UNIT ( $, .STERADIAN. ) SOLID_ANGLE_UNIT ( ) );
#399 = CARTESIAN_POINT ( 'NONE',  ( 0.0000000000000000000, 0.0000000000000000000, 0.0000000000000000000 ) ) ;
#400 = DIRECTION ( 'NONE',  ( 1.000000000000000000, 0.0000000000000000000, 0.0000000000000000000 ) ) ;
#401 = CIRCLE ( 'NONE', #483, 1.499999999999997780 ) ;
#402 = AXIS2_PLACEMENT_3D ( 'NONE', #383, #55, #374 ) ;
#403 = CARTESIAN_POINT ( 'NONE',  ( 0.0000000000000000000, 0.0000000000000000000, 0.0000000000000000000 ) ) ;
#404 = ADVANCED_FACE ( 'NONE', ( #323 ), #138, .T. ) ;
#405 = DIRECTION ( 'NONE',  ( -0.0000000000000000000, -1.000000000000000000, -0.0000000000000000000 ) ) ;
#406 = CARTESIAN_POINT ( 'NONE',  ( -15.96933128205094832, -4.000000000000000000, 22.38817675479869607 ) ) ;
#407 = EDGE_CURVE ( 'NONE', #501, #196, #75, .T. ) ;
#408 = ORIENTED_EDGE ( 'NONE', *, *, #286, .F. ) ;
#409 = CIRCLE ( 'NONE', #150, 2.499999999999998668 ) ;
#410 = VERTEX_POINT ( 'NONE', #183 ) ;
#411 = AXIS2_PLACEMENT_3D ( 'NONE', #69, #458, #26 ) ;
#412 = ORIENTED_EDGE ( 'NONE', *, *, #477, .F. ) ;
#413 = DIRECTION ( 'NONE',  ( 0.0000000000000000000, 0.0000000000000000000, 1.000000000000000000 ) ) ;
#414 = DIRECTION ( 'NONE',  ( 0.0000000000000000000, 0.8944271909999161885, 0.4472135954999570950 ) ) ;
#415 = EDGE_CURVE ( 'NONE', #372, #117, #357, .T. ) ;
#416 = CARTESIAN_POINT ( 'NONE',  ( -15.96933128205094832, 0.0000000000000000000, 22.38817675479869607 ) ) ;
#417 = AXIS2_PLACEMENT_3D ( 'NONE', #303, #141, #424 ) ;
#418 = VERTEX_POINT ( 'NONE', #148 ) ;
#419 = DIRECTION ( 'NONE',  ( 0.0000000000000000000, 0.0000000000000000000, 1.000000000000000000 ) ) ;
#420 = CIRCLE ( 'NONE', #34, 1.700000000000000178 ) ;
#421 = CARTESIAN_POINT ( 'NONE',  ( -15.96933128205094832, 0.0000000000000000000, 22.38817675479869607 ) ) ;
#422 = EDGE_LOOP ( 'NONE', ( #155, #38, #114, #393 ) ) ;
#423 = DIRECTION ( 'NONE',  ( 0.0000000000000000000, 1.000000000000000000, 0.0000000000000000000 ) ) ;
#424 = DIRECTION ( 'NONE',  ( 0.0000000000000000000, 0.0000000000000000000, 1.000000000000000000 ) ) ;
#425 = CARTESIAN_POINT ( 'NONE',  ( -15.96933128205094832, -4.000000000000000000, 20.68817675479869322 ) ) ;
#426 = ORIENTED_EDGE ( 'NONE', *, *, #224, .F. ) ;
#427 = CARTESIAN_POINT ( 'NONE',  ( -19.44543648263015356, 6.000000000000000000, 16.94543648262995461 ) ) ;
#428 = CARTESIAN_POINT ( 'NONE',  ( -16.26601314419006528, 0.0000000000000000000, 22.17356120232011918 ) ) ;
#429 = ORIENTED_EDGE ( 'NONE', *, *, #286, .T. ) ;
#430 = AXIS2_PLACEMENT_3D ( 'NONE', #265, #216, #503 ) ;
#431 = CYLINDRICAL_SURFACE ( 'NONE', #193, 1.999999999999998224 ) ;
#432 = VERTEX_POINT ( 'NONE', #337 ) ;
#433 = AXIS2_PLACEMENT_3D ( 'NONE', #22, #488, #65 ) ;
#434 = ORIENTED_EDGE ( 'NONE', *, *, #206, .T. ) ;
#435 = ADVANCED_FACE ( 'NONE', ( #189 ), #499, .T. ) ;
#436 = EDGE_LOOP ( 'NONE', ( #327, #59, #37, #274 ) ) ;
#437 = CIRCLE ( 'NONE', #462, 24.50000000000000000 ) ;
#438 = PRODUCT_DEFINITION_FORMATION_WITH_SPECIFIED_SOURCE ( '浠', '', #453, .NOT_KNOWN. ) ;
#439 = ORIENTED_EDGE ( 'NONE', *, *, #209, .T. ) ;
#440 = AXIS2_PLACEMENT_3D ( 'NONE', #157, #304, #190 ) ;
#441 = FACE_BOUND ( 'NONE', #83, .T. ) ;
#442 = PRODUCT_DEFINITION_SHAPE ( 'NONE', 'NONE',  #306 ) ;
#443 = DIRECTION ( 'NONE',  ( -0.0000000000000000000, 1.000000000000000000, -0.0000000000000000000 ) ) ;
#444 = EDGE_CURVE ( 'NONE', #200, #476, #130, .T. ) ;
#445 = SURFACE_SIDE_STYLE ('',( #246 ) ) ;
#446 = ADVANCED_FACE ( 'NONE', ( #387 ), #70, .F. ) ;
#447 = AXIS2_PLACEMENT_3D ( 'NONE', #252, #371, #176 ) ;
#448 = APPLICATION_CONTEXT ( 'automotive_design' ) ;
#449 = EDGE_CURVE ( 'NONE', #389, #14, #47, .T. ) ;
#450 = ORIENTED_EDGE ( 'NONE', *, *, #204, .F. ) ;
#451 = DIRECTION ( 'NONE',  ( 0.0000000000000000000, 0.0000000000000000000, -1.000000000000000000 ) ) ;
#452 = PRODUCT_RELATED_PRODUCT_CATEGORY ( 'part', '', ( #453 ) ) ;
#453 = PRODUCT ( '\X2\9acb5173828296504f4d5757\X0\', '\X2\9acb5173828296504f4d5757\X0\', '', ( #239 ) ) ;
#454 = AXIS2_PLACEMENT_3D ( 'NONE', #223, #227, #115 ) ;
#455 = VERTEX_POINT ( 'NONE', #427 ) ;
#456 = DIRECTION ( 'NONE',  ( 0.0000000000000000000, 0.0000000000000000000, 1.000000000000000000 ) ) ;
#457 = VECTOR ( 'NONE', #299, 1000.000000000000000 ) ;
#458 = DIRECTION ( 'NONE',  ( -0.0000000000000000000, -1.000000000000000000, -0.0000000000000000000 ) ) ;
#459 = DIRECTION ( 'NONE',  ( -0.0000000000000000000, 1.000000000000000000, -0.0000000000000000000 ) ) ;
#460 = CARTESIAN_POINT ( 'NONE',  ( -19.44543648263015356, 6.000000000000000000, 21.94543648262995106 ) ) ;
#461 = CARTESIAN_POINT ( 'NONE',  ( -15.96933128205094832, 0.0000000000000000000, 20.68817675479869322 ) ) ;
#462 = AXIS2_PLACEMENT_3D ( 'NONE', #403, #90, #240 ) ;
#463 = ORIENTED_EDGE ( 'NONE', *, *, #415, .F. ) ;
#464 = AXIS2_PLACEMENT_3D ( 'NONE', #9, #283, #400 ) ;
#465 = DIRECTION ( 'NONE',  ( -0.0000000000000000000, -1.000000000000000000, -0.0000000000000000000 ) ) ;
#466 = AXIS2_PLACEMENT_3D ( 'NONE', #344, #505, #309 ) ;
#467 = CARTESIAN_POINT ( 'NONE',  ( -19.44543648263015356, 6.000000000000000000, 19.44543648262995461 ) ) ;
#468 = ORIENTED_EDGE ( 'NONE', *, *, #89, .T. ) ;
#469 = DIRECTION ( 'NONE',  ( 0.0000000000000000000, 0.0000000000000000000, 1.000000000000000000 ) ) ;
#470 = EDGE_CURVE ( 'NONE', #432, #121, #496, .T. ) ;
#471 = DIRECTION ( 'NONE',  ( 0.0000000000000000000, 0.0000000000000000000, 1.000000000000000000 ) ) ;
#472 = ORIENTED_EDGE ( 'NONE', *, *, #449, .T. ) ;
#473 = ADVANCED_FACE ( 'NONE', ( #108 ), #126, .F. ) ;
#474 = DIRECTION ( 'NONE',  ( 0.0000000000000000000, 0.0000000000000000000, -1.000000000000000000 ) ) ;
#475 = ORIENTED_EDGE ( 'NONE', *, *, #118, .F. ) ;
#476 = VERTEX_POINT ( 'NONE', #461 ) ;
#477 = EDGE_CURVE ( 'NONE', #77, #315, #111, .T. ) ;
#478 = ORIENTED_EDGE ( 'NONE', *, *, #204, .T. ) ;
#479 = ORIENTED_EDGE ( 'NONE', *, *, #407, .T. ) ;
#480 = DIRECTION ( 'NONE',  ( -0.0000000000000000000, -1.000000000000000000, -0.0000000000000000000 ) ) ;
#481 = CARTESIAN_POINT ( 'NONE',  ( -18.04048730537444101, 6.000000000000000000, 24.59249515166412792 ) ) ;
#482 = LINE ( 'NONE', #5, #28 ) ;
#483 = AXIS2_PLACEMENT_3D ( 'NONE', #192, #381, #456 ) ;
#484 = EDGE_CURVE ( 'NONE', #410, #455, #409, .T. ) ;
#485 = CIRCLE ( 'NONE', #324, 2.999999999999999112 ) ;
#486 = ORIENTED_EDGE ( 'NONE', *, *, #338, .T. ) ;
#487 = CYLINDRICAL_SURFACE ( 'NONE', #63, 30.50000000000000000 ) ;
#488 = DIRECTION ( 'NONE',  ( 0.0000000000000000000, 1.000000000000000000, 0.0000000000000000000 ) ) ;
#489 = CYLINDRICAL_SURFACE ( 'NONE', #167, 1.700000000000000178 ) ;
#490 = DIRECTION ( 'NONE',  ( -0.0000000000000000000, -1.000000000000000000, -0.0000000000000000000 ) ) ;
#491 = DIRECTION ( 'NONE',  ( 0.0000000000000000000, 1.000000000000000000, 0.0000000000000000000 ) ) ;
#492 = ADVANCED_FACE ( 'NONE', ( #66 ), #489, .T. ) ;
#493 = CARTESIAN_POINT ( 'NONE',  ( -14.49153898300570020, 6.000000000000000000, 19.75462725297610689 ) ) ;
#494 = ORIENTED_EDGE ( 'NONE', *, *, #184, .F. ) ;
#495 = ORIENTED_EDGE ( 'NONE', *, *, #257, .T. ) ;
#496 = LINE ( 'NONE', #62, #241 ) ;
#497 = EDGE_CURVE ( 'NONE', #273, #195, #401, .T. ) ;
#498 = ORIENTED_EDGE ( 'NONE', *, *, #293, .F. ) ;
#499 = CYLINDRICAL_SURFACE ( 'NONE', #417, 1.999999999999998224 ) ;
#500 = LINE ( 'NONE', #267, #395 ) ;
#501 = VERTEX_POINT ( 'NONE', #255 ) ;
#502 = EDGE_CURVE ( 'NONE', #125, #511, #203, .T. ) ;
#503 = DIRECTION ( 'NONE',  ( 0.0000000000000000000, 0.0000000000000000000, 1.000000000000000000 ) ) ;
#504 = CIRCLE ( 'NONE', #390, 1.499999999999997780 ) ;
#505 = DIRECTION ( 'NONE',  ( 0.0000000000000000000, -1.000000000000000000, 0.0000000000000000000 ) ) ;
#506 = EDGE_LOOP ( 'NONE', ( #426, #234, #174, #104 ) ) ;
#507 = DIRECTION ( 'NONE',  ( 0.0000000000000000000, 0.0000000000000000000, 1.000000000000000000 ) ) ;
#508 = EDGE_LOOP ( 'NONE', ( #412, #212, #191, #495 ) ) ;
#509 = EDGE_LOOP ( 'NONE', ( #264, #475, #408, #478 ) ) ;
#510 = AXIS2_PLACEMENT_3D ( 'NONE', #297, #465, #152 ) ;
#511 = VERTEX_POINT ( 'NONE', #60 ) ;
#512 = CIRCLE ( 'NONE', #205, 2.499999999999998668 ) ;
#513 = ORIENTED_EDGE ( 'NONE', *, *, #89, .F. ) ;
#514 = CARTESIAN_POINT ( 'NONE',  ( -11.08678060116014485, 0.0000000000000000000, 8.133006572094915398 ) ) ;
ENDSEC;
END-ISO-10303-21;
